<svg width="483" height="483" viewBox="0 0 483 483" fill="none" xmlns="http://www.w3.org/2000/svg">
<path opacity="0.7" d="M65.622 161.409C65.622 161.409 38.6899 230.961 76.5378 300.996C114.386 371.031 192.342 408.029 254.736 439.665C317.13 471.302 381.919 455.894 412.706 404.078C443.492 352.262 401.268 315.273 401.21 241.384C401.152 167.495 412.271 147.933 372.23 85.5103C332.19 23.0874 234.034 9.26396 159.807 55.5643C85.5796 101.865 65.622 161.409 65.622 161.409Z" fill="#028862"/>
<path d="M106.259 108.646C119.261 93.1128 136.833 81.144 157.775 81.3469C193.517 81.7913 212.837 113.428 233.336 137.829C243.962 150.484 256.027 162.694 271.812 168.644C295.488 177.561 321.86 172.354 344.928 164.075C355.264 160.366 367.504 155.149 379.144 157.815C414.529 165.911 410.848 209.091 405.004 236.438C397.112 273.378 384.283 312.656 358.288 340.998C296.049 408.898 184.041 367.273 127.897 313.09C123.772 309.101 119.821 304.947 116.102 300.532C106.44 289.268 98.2626 276.811 91.7687 263.467C73.6851 225.841 71.1929 180.111 86.9387 141.229C91.6669 129.44 98.1833 118.45 106.259 108.646Z" fill="#03D196"/>
<path opacity="0.7" d="M106.259 108.646C119.261 93.1128 136.833 81.144 157.775 81.3469C193.517 81.7913 212.837 113.428 233.336 137.829C243.962 150.484 256.027 162.694 271.812 168.644C295.488 177.561 321.86 172.354 344.928 164.075C355.264 160.366 367.504 155.149 379.144 157.815C414.529 165.911 410.848 209.091 405.004 236.438C397.112 273.378 384.283 312.656 358.288 340.998C296.049 408.898 184.041 367.273 127.897 313.09C123.772 309.101 119.821 304.947 116.102 300.532C106.44 289.268 98.2626 276.811 91.7687 263.467C73.6851 225.841 71.1929 180.111 86.9387 141.229C91.6669 129.44 98.1833 118.45 106.259 108.646Z" fill="white"/>
<path d="M52.2188 428.353H430.794" stroke="#263238" stroke-width="0.966" stroke-linecap="round" stroke-linejoin="round"/>
<path d="M282.039 232.613V90.4756H290.839" stroke="#263238" stroke-width="0.966" stroke-linecap="round" stroke-linejoin="round"/>
<path d="M282.039 249.528V245.76" stroke="#263238" stroke-width="0.966" stroke-linecap="round" stroke-linejoin="round"/>
<path d="M313.473 90.4756H404.286V262.781H282.039" stroke="#263238" stroke-width="0.966" stroke-linecap="round" stroke-linejoin="round"/>
<path d="M302.344 90.4756H310.323" stroke="#263238" stroke-width="0.966" stroke-linecap="round" stroke-linejoin="round"/>
<path d="M399.688 95.0641H286.637V258.192H399.688V95.0641Z" stroke="#263238" stroke-width="0.966" stroke-linecap="round" stroke-linejoin="round"/>
<path d="M394.432 103.797V171.542H291.891V167.118" stroke="#263238" stroke-width="0.966" stroke-linecap="round" stroke-linejoin="round"/>
<path d="M291.891 156.762V99.8748H394.432" stroke="#263238" stroke-width="0.966" stroke-linecap="round" stroke-linejoin="round"/>
<path d="M291.891 163.727V159.429" stroke="#263238" stroke-width="0.966" stroke-linecap="round" stroke-linejoin="round"/>
<path d="M377.117 176.623H399.693" stroke="#263238" stroke-width="0.966" stroke-linecap="round" stroke-linejoin="round"/>
<path d="M369.086 176.623H372.283" stroke="#263238" stroke-width="0.966" stroke-linecap="round" stroke-linejoin="round"/>
<path d="M286.637 176.623H365.279" stroke="#263238" stroke-width="0.966" stroke-linecap="round" stroke-linejoin="round"/>
<path d="M337.476 171.542V169.205H346.934V170.528H343.166V171.542" stroke="#263238" stroke-width="0.966" stroke-linecap="round" stroke-linejoin="round"/>
<path d="M286.828 237.636C286.828 237.636 288.403 238.824 289.504 246.011C289.504 246.011 291.436 234.535 293.696 234.361C295.957 234.187 295.532 241.819 295.532 241.819C295.532 241.819 295.918 238.061 297.715 238.235C299.512 238.409 297.715 245.963 297.715 245.963C297.715 245.963 299.879 240.032 301.927 240.167C303.975 240.302 300.574 250.909 300.574 250.909C300.574 250.909 305.829 247.103 307.955 248.977C310.08 250.851 306.776 255.526 306.776 255.526C306.776 255.526 314.311 253.894 315.47 258.318" stroke="#263238" stroke-width="0.966" stroke-linecap="round" stroke-linejoin="round"/>
<path d="M315.48 254.058C315.48 254.058 318.765 251.904 321.354 252.908C321.354 252.908 319.712 250.407 321.354 248.88C322.996 247.354 325.102 252.908 325.102 252.908C325.102 252.908 325.343 243.587 328.628 244.06C331.912 244.533 328.628 252.908 328.628 252.908C328.628 252.908 334.491 247.711 335.902 249.518C337.312 251.324 334.936 254.058 334.936 254.058C335.996 253.757 337.116 253.737 338.186 253.999C339.257 254.262 340.24 254.798 341.041 255.555C341.041 255.555 344.972 251.546 349.339 250.967C349.339 250.967 346.441 242.534 347.841 240.833C349.242 239.133 351.812 248.194 351.812 248.194C351.812 248.194 352.932 242.302 356.642 241.838C356.642 241.838 353.58 240.177 354.488 237.655C355.396 235.134 359.617 238.254 359.617 238.254C359.617 238.254 357.878 233.82 360.631 232.603C363.384 231.386 364.495 236.313 364.495 236.313C364.495 236.313 365.268 231.154 368.495 231.483C371.721 231.811 370.678 237.704 370.678 237.704C370.678 237.704 373.721 232.99 375.353 233.463C378.609 234.429 377.623 241.886 377.623 241.886C377.623 241.886 382.163 238.728 383.342 240.186C384.52 241.645 378.609 245.799 378.609 245.799C378.609 245.799 383.12 246.291 385.931 248.929" stroke="#263238" stroke-width="0.966" stroke-linecap="round" stroke-linejoin="round"/>
<path d="M399.692 239.375C399.692 239.375 399.17 234.641 394.437 234.39C389.704 234.139 395.741 244.775 395.741 244.775C395.741 244.775 391.829 241.539 390.428 242.534C389.027 243.529 394.437 249.015 394.437 249.015C394.437 249.015 391.838 246.61 389.105 247.354C386.371 248.098 390.66 255.72 390.66 255.72C386.615 254.909 382.418 255.403 378.672 257.13" stroke="#263238" stroke-width="0.966" stroke-linecap="round" stroke-linejoin="round"/>
<path d="M238.297 386.062V428.102" stroke="#263238" stroke-width="0.966" stroke-linecap="round" stroke-linejoin="round"/>
<path d="M238.297 372.306V381.309" stroke="#263238" stroke-width="0.966" stroke-linecap="round" stroke-linejoin="round"/>
<path d="M61.3283 428.353V350.011H238.299V367.206" stroke="#263238" stroke-width="0.966" stroke-linecap="round" stroke-linejoin="round"/>
<path d="M87.1094 358.579H71.75V421.166" stroke="#263238" stroke-width="0.966" stroke-linecap="round" stroke-linejoin="round"/>
<path d="M227.877 428.102V358.579H96.0273" stroke="#263238" stroke-width="0.966" stroke-linecap="round" stroke-linejoin="round"/>
<path d="M220.519 341.896H215.641" stroke="#263238" stroke-width="0.966" stroke-linecap="round" stroke-linejoin="round"/>
<path d="M208.634 341.896H56.9336V349.953H242.695V341.896H223.627" stroke="#263238" stroke-width="0.966" stroke-linecap="round" stroke-linejoin="round"/>
<path d="M67.3945 290.273C67.3945 290.273 81.8845 291.423 82.5414 302.146C82.5414 302.146 67.8099 308.927 67.3945 290.273Z" stroke="#263238" stroke-width="0.966" stroke-linecap="round" stroke-linejoin="round"/>
<path d="M96.1562 292.94C96.1562 292.94 104.28 281.956 117.408 287.588C117.408 287.588 109.39 300.861 96.1562 292.94Z" stroke="#263238" stroke-width="0.966" stroke-linecap="round" stroke-linejoin="round"/>
<path d="M116.294 258.26C116.294 258.26 118.632 279.387 99.3986 273.571C99.3986 273.571 105.504 258.038 116.294 258.26Z" stroke="#263238" stroke-width="0.966" stroke-linecap="round" stroke-linejoin="round"/>
<path d="M92.6754 246.494C92.6754 246.494 107.89 254.705 96.7036 267.147C96.7036 267.147 86.039 258.26 92.6754 246.494Z" stroke="#263238" stroke-width="0.966" stroke-linecap="round" stroke-linejoin="round"/>
<path d="M73.9647 265.38C73.9647 265.38 90.5026 263.718 90.5026 279.019C90.5026 279.019 73.9647 279.676 73.9647 265.38Z" stroke="#263238" stroke-width="0.966" stroke-linecap="round" stroke-linejoin="round"/>
<path d="M86.3591 310.791C86.1176 305.652 86.1176 299.045 89.2571 292.06C96.4925 275.948 98.9171 262.375 95.1594 252.812" stroke="#263238" stroke-width="0.966" stroke-linecap="round" stroke-linejoin="round"/>
<path d="M79.3947 269.514C79.3947 269.514 89.3059 273.455 92.6772 283.666" stroke="#263238" stroke-width="0.966" stroke-linecap="round" stroke-linejoin="round"/>
<path d="M111.089 266.713C111.089 266.713 105.36 274.518 95.6328 273.677" stroke="#263238" stroke-width="0.966" stroke-linecap="round" stroke-linejoin="round"/>
<path d="M111.089 289.8C111.089 289.8 95.2177 294.369 88.8711 292.872" stroke="#263238" stroke-width="0.966" stroke-linecap="round" stroke-linejoin="round"/>
<path d="M72.1289 295.103C72.1289 295.103 79.229 302.889 86.3581 302.764" stroke="#263238" stroke-width="0.966" stroke-linecap="round" stroke-linejoin="round"/>
<path d="M105.223 310.791H70.7467C70.5238 310.791 70.31 310.88 70.1524 311.037C69.9948 311.195 69.9063 311.409 69.9063 311.632V314.25C69.9062 314.359 69.928 314.468 69.9704 314.57C70.0128 314.671 70.0748 314.763 70.153 314.84C70.2311 314.918 70.3239 314.979 70.4258 315.02C70.5277 315.061 70.6368 315.082 70.7467 315.08H71.7127L74.7845 341.896H101.137L104.209 315.08H105.223C105.333 315.082 105.441 315.061 105.543 315.02C105.644 314.978 105.736 314.917 105.814 314.84C105.891 314.762 105.952 314.67 105.993 314.569C106.035 314.468 106.055 314.359 106.054 314.25V311.632C106.055 311.522 106.035 311.413 105.994 311.311C105.952 311.209 105.891 311.116 105.814 311.038C105.737 310.96 105.645 310.898 105.543 310.855C105.442 310.813 105.333 310.791 105.223 310.791Z" stroke="#263238" stroke-width="0.966" stroke-miterlimit="10"/>
<path d="M73.9647 315.08H94.0188" stroke="#263238" stroke-width="0.966" stroke-linecap="round" stroke-linejoin="round"/>
<path d="M97.7969 315.08H100.811" stroke="#263238" stroke-width="0.966" stroke-linecap="round" stroke-linejoin="round"/>
<path d="M317.535 203.913L313.671 224.914L282.16 244.06L286.517 252.058C286.517 252.058 322.945 240.949 323.833 238.351C324.722 235.752 333.117 208.231 333.117 208.231L317.535 203.913Z" fill="#263238"/>
<path d="M331.335 168.403L329.229 193.867L328.119 207.226C322.042 210.182 316.101 205.739 315.734 205.449C317.386 200.6 319.309 173.233 331.335 168.403Z" fill="#999999" stroke="#263238" stroke-width="0.966" stroke-linecap="round" stroke-linejoin="round"/>
<path d="M329.19 193.867L328.079 207.226C322.003 210.182 316.062 205.739 315.695 205.449C315.956 205.565 319.154 206.917 321.231 205.449C320.504 204.665 319.857 203.81 319.299 202.899C319.173 202.396 321.231 202.261 321.231 202.261C321.231 202.261 319.878 191.432 323.481 186.805C324.892 185.047 327.094 188.718 329.19 193.867Z" fill="#263238"/>
<path d="M353.156 404.213L354.122 407.053C352.658 409.47 351.018 411.775 349.215 413.95C349.215 413.95 348.249 413.641 346.665 415.042C345.689 416.015 345.087 417.301 344.965 418.674C344.965 418.674 337.584 427.523 328.224 427.648C318.863 427.774 321.684 423.06 321.684 423.06L353.156 404.213Z" fill="#03D196" stroke="#263238" stroke-width="0.966" stroke-linecap="round" stroke-linejoin="round"/>
<path d="M344.36 381.696C344.36 381.696 331.802 377.068 329.349 386.323C329.349 386.323 331.59 396.514 330.247 402.088C328.904 407.662 322.142 418.307 321.727 420.326C320.906 424.287 321.524 424.557 321.524 424.557C321.524 424.557 326.441 427.397 333.048 424.354C339.656 421.311 351.093 408.212 352.88 405.517C354.668 402.822 347.278 392.196 347.278 392.196L344.36 381.696Z" fill="white"/>
<mask id="mask0_1_55" style="mask-type:luminance" maskUnits="userSpaceOnUse" x="321" y="380" width="33" height="46">
<path d="M344.356 381.696C344.356 381.696 331.798 377.068 329.345 386.323C329.345 386.323 331.586 396.514 330.243 402.088C328.9 407.662 322.138 418.307 321.723 420.326C320.902 424.287 321.52 424.557 321.52 424.557C321.52 424.557 326.437 427.397 333.045 424.354C339.652 421.311 351.089 408.212 352.876 405.517C354.664 402.822 347.274 392.196 347.274 392.196L344.356 381.696Z" fill="white"/>
</mask>
<g mask="url(#mask0_1_55)">
<path opacity="0.4" d="M344.356 381.696C344.356 381.696 331.798 377.068 329.345 386.323C329.345 386.323 331.586 396.514 330.243 402.088C328.9 407.662 322.138 418.307 321.723 420.326C320.902 424.287 321.52 424.557 321.52 424.557C321.52 424.557 326.437 427.397 333.045 424.354C339.652 421.311 351.089 408.212 352.876 405.517C354.664 402.822 347.274 392.196 347.274 392.196L344.356 381.696Z" fill="#03D196"/>
</g>
<path d="M344.36 381.696C344.36 381.696 331.802 377.068 329.349 386.323C329.349 386.323 331.59 396.514 330.247 402.088C328.904 407.662 322.142 418.307 321.727 420.326C320.906 424.287 321.524 424.557 321.524 424.557C321.524 424.557 326.441 427.397 333.048 424.354C339.656 421.311 351.093 408.212 352.88 405.517C354.668 402.822 347.278 392.196 347.278 392.196L344.36 381.696Z" stroke="#263238" stroke-width="0.966" stroke-linecap="round" stroke-linejoin="round"/>
<path d="M337.932 394.785C339.025 401.019 337.915 407.44 334.793 412.946" stroke="#263238" stroke-width="0.966" stroke-linecap="round" stroke-linejoin="round"/>
<path d="M334.798 415.38C334.331 416.556 333.606 417.613 332.676 418.472C331.747 419.331 330.637 419.972 329.427 420.345C326.896 421.023 324.231 421.023 321.699 420.345L324.713 414.24C327.912 415.515 331.395 415.909 334.798 415.38Z" fill="#03D196" stroke="#263238" stroke-width="0.966" stroke-linecap="round" stroke-linejoin="round"/>
<path d="M336.572 411.68C336.572 411.68 330.004 412.076 326.574 410.714" stroke="#263238" stroke-width="0.966" stroke-linecap="round" stroke-linejoin="round"/>
<path d="M337.792 408.058C337.792 408.058 331.648 409.024 328.219 407.092" stroke="#263238" stroke-width="0.966" stroke-linecap="round" stroke-linejoin="round"/>
<path d="M338.83 404.03C338.83 404.03 333.45 404.812 329.934 403.151" stroke="#263238" stroke-width="0.966" stroke-linecap="round" stroke-linejoin="round"/>
<path d="M339.433 399.47C339.433 399.47 333.444 401.344 330.613 399.47" stroke="#263238" stroke-width="0.966" stroke-linecap="round" stroke-linejoin="round"/>
<path d="M340.332 388.206L341.376 394.785C341.376 394.785 333.454 400.001 328.219 393.481V386.613C328.219 386.613 330.189 391.23 340.332 388.206Z" fill="#03D196" stroke="#263238" stroke-width="0.966" stroke-linecap="round" stroke-linejoin="round"/>
<path d="M333.453 240.534C325.426 265.969 300.513 306.763 303.034 317.205C304.415 322.905 312.636 355.198 319.069 369.369C321.513 374.789 326.797 378.411 326.797 378.411L330.613 386.593C339.916 390.641 343.248 382.41 343.248 382.41L341.374 373.137C346.359 364.076 344.272 364.076 337.79 317.109C337.027 311.574 349.865 294.466 349.865 294.466L356.454 337.511L357.526 372.77L360.945 383.666C360.945 383.666 361.796 393.896 361.718 394.514H377.01L378.672 383.27C378.672 383.27 385.772 376.576 385.772 368.848C385.772 361.12 384.245 321.755 385.772 310.289C387.298 298.822 382.197 245.364 382.197 245.364L333.453 240.534Z" fill="#263238"/>
<path d="M229.496 217.871L250.748 219.784C251.229 219.827 251.674 220.06 251.984 220.431C252.294 220.802 252.444 221.282 252.4 221.763L251.035 236.929L226.151 234.69L227.516 219.524C227.559 219.042 227.792 218.597 228.164 218.287C228.535 217.977 229.014 217.828 229.496 217.871Z" fill="#03D196"/>
<mask id="mask1_1_55" style="mask-type:luminance" maskUnits="userSpaceOnUse" x="226" y="217" width="27" height="20">
<path d="M229.496 217.871L250.748 219.784C251.229 219.827 251.674 220.06 251.984 220.431C252.294 220.802 252.444 221.282 252.4 221.763L251.035 236.929L226.151 234.69L227.516 219.524C227.56 219.042 227.793 218.597 228.164 218.287C228.535 217.977 229.014 217.828 229.496 217.871Z" fill="white"/>
</mask>
<g mask="url(#mask1_1_55)">
<path opacity="0.3" d="M229.496 217.871L250.748 219.784C251.229 219.827 251.674 220.06 251.984 220.431C252.294 220.802 252.444 221.282 252.4 221.763L251.035 236.929L226.151 234.69L227.516 219.524C227.56 219.042 227.793 218.597 228.164 218.287C228.535 217.977 229.014 217.828 229.496 217.871Z" fill="black" fill-opacity="0.7"/>
<path opacity="0.3" d="M251.085 219.52L244.992 218.997L243.945 231.182L250.038 231.705L251.085 219.52Z" fill="white" fill-opacity="0.7"/>
</g>
<path d="M229.496 217.871L250.748 219.784C251.229 219.827 251.674 220.06 251.984 220.431C252.294 220.802 252.444 221.282 252.4 221.763L251.035 236.929L226.151 234.69L227.516 219.524C227.559 219.042 227.792 218.597 228.164 218.287C228.535 217.977 229.014 217.828 229.496 217.871Z" stroke="#263238" stroke-width="0.969904" stroke-linecap="round" stroke-linejoin="round"/>
<path d="M266.181 219.214L287.355 221.033C287.834 221.074 288.278 221.304 288.588 221.672C288.899 222.041 289.05 222.517 289.009 222.997L287.71 238.108L262.918 235.978L264.216 220.868C264.257 220.388 264.487 219.944 264.856 219.634C265.224 219.323 265.701 219.172 266.181 219.214Z" fill="#03D196"/>
<mask id="mask2_1_55" style="mask-type:luminance" maskUnits="userSpaceOnUse" x="262" y="219" width="28" height="20">
<path d="M266.177 219.214L287.351 221.033C287.831 221.074 288.274 221.304 288.585 221.672C288.895 222.041 289.046 222.517 289.005 222.997L287.707 238.108L262.914 235.978L264.212 220.868C264.253 220.388 264.483 219.944 264.852 219.634C265.22 219.323 265.697 219.172 266.177 219.214Z" fill="white"/>
</mask>
<g mask="url(#mask2_1_55)">
<path opacity="0.3" d="M266.177 219.214L287.351 221.033C287.831 221.074 288.274 221.304 288.585 221.672C288.895 222.041 289.046 222.517 289.005 222.997L287.707 238.108L262.914 235.978L264.212 220.868C264.253 220.388 264.483 219.944 264.852 219.634C265.22 219.323 265.697 219.172 266.177 219.214Z" fill="black" fill-opacity="0.7"/>
<path opacity="0.3" d="M287.235 222.632L283.559 222.317L282.512 234.501L286.188 234.817L287.235 222.632Z" fill="white" fill-opacity="0.7"/>
</g>
<path d="M266.181 219.214L287.355 221.033C287.834 221.074 288.278 221.304 288.588 221.672C288.899 222.041 289.05 222.517 289.009 222.997L287.71 238.108L262.918 235.978L264.216 220.868C264.257 220.388 264.487 219.944 264.856 219.634C265.224 219.323 265.701 219.172 266.181 219.214Z" stroke="#263238" stroke-width="0.966" stroke-linecap="round" stroke-linejoin="round"/>
<path d="M258.485 218.547L279.659 220.366C280.139 220.407 280.583 220.638 280.893 221.006C281.203 221.375 281.354 221.851 281.313 222.331L280.015 237.442L255.222 235.312L256.52 220.201C256.562 219.721 256.792 219.278 257.16 218.967C257.529 218.657 258.005 218.506 258.485 218.547Z" fill="#03D196" stroke="#263238" stroke-width="0.966" stroke-linecap="round" stroke-linejoin="round"/>
<path d="M295.056 221.695L316.23 223.514C316.709 223.555 317.153 223.785 317.463 224.154C317.774 224.522 317.925 224.999 317.884 225.479L316.586 240.58L291.793 238.45L293.091 223.339C293.135 222.861 293.366 222.42 293.734 222.112C294.102 221.804 294.577 221.654 295.056 221.695Z" fill="#03D196" stroke="#263238" stroke-width="0.966" stroke-linecap="round" stroke-linejoin="round"/>
<path opacity="0.3" d="M279.956 222.002L273.863 221.479L272.817 233.663L278.909 234.187L279.956 222.002Z" fill="white" fill-opacity="0.7"/>
<path opacity="0.3" d="M316.12 225.105L310.027 224.582L308.981 236.767L315.073 237.29L316.12 225.105Z" fill="white" fill-opacity="0.7"/>
<path d="M327.656 238.013L321.676 307.497L209.727 297.837L215.706 228.362C215.755 227.787 215.916 227.228 216.182 226.715C216.447 226.203 216.811 225.748 217.252 225.376C217.694 225.005 218.204 224.724 218.755 224.55C219.305 224.376 219.884 224.313 220.459 224.363L323.647 233.231C324.225 233.278 324.789 233.44 325.304 233.707C325.82 233.973 326.277 234.34 326.65 234.784C327.023 235.229 327.304 235.744 327.477 236.298C327.649 236.852 327.71 237.435 327.656 238.013Z" fill="#03D196"/>
<mask id="mask3_1_55" style="mask-type:luminance" maskUnits="userSpaceOnUse" x="209" y="224" width="119" height="84">
<path d="M327.656 238.013L321.676 307.497L209.727 297.837L215.706 228.362C215.755 227.787 215.916 227.228 216.182 226.715C216.447 226.203 216.811 225.748 217.252 225.376C217.694 225.005 218.204 224.724 218.755 224.55C219.305 224.376 219.884 224.313 220.459 224.363L323.647 233.231C324.225 233.278 324.789 233.44 325.304 233.707C325.82 233.973 326.277 234.34 326.65 234.784C327.023 235.229 327.304 235.744 327.477 236.298C327.649 236.852 327.71 237.435 327.656 238.013Z" fill="white"/>
</mask>
<g mask="url(#mask3_1_55)">
<path opacity="0.3" d="M327.656 238.013L321.676 307.497L209.727 297.837L215.706 228.362C215.755 227.787 215.916 227.228 216.182 226.715C216.447 226.203 216.811 225.748 217.252 225.376C217.694 225.005 218.204 224.724 218.755 224.55C219.305 224.376 219.884 224.313 220.459 224.363L323.647 233.231C324.225 233.278 324.789 233.44 325.304 233.707C325.82 233.973 326.277 234.34 326.65 234.784C327.023 235.229 327.304 235.744 327.477 236.298C327.649 236.852 327.71 237.435 327.656 238.013Z" fill="black" fill-opacity="0.7"/>
</g>
<path d="M327.656 238.013L321.676 307.497L209.727 297.837L215.706 228.362C215.755 227.787 215.916 227.228 216.182 226.715C216.447 226.203 216.811 225.748 217.252 225.376C217.694 225.005 218.204 224.724 218.755 224.55C219.305 224.376 219.884 224.313 220.459 224.363L323.647 233.231C324.225 233.278 324.789 233.44 325.304 233.707C325.82 233.973 326.277 234.34 326.65 234.784C327.023 235.229 327.304 235.744 327.477 236.298C327.649 236.852 327.71 237.435 327.656 238.013Z" stroke="#263238" stroke-width="0.966" stroke-linecap="round" stroke-linejoin="round"/>
<path d="M327.653 238.013L321.674 307.497L238.598 300.349L244.587 230.874C244.635 230.299 244.797 229.739 245.062 229.227C245.328 228.714 245.692 228.26 246.133 227.888C246.575 227.516 247.085 227.236 247.635 227.062C248.186 226.888 248.765 226.824 249.34 226.875L323.654 233.26C324.229 233.309 324.789 233.47 325.301 233.736C325.813 234.001 326.268 234.365 326.64 234.806C327.011 235.248 327.292 235.758 327.466 236.309C327.64 236.859 327.704 237.438 327.653 238.013Z" fill="#03D196" stroke="#263238" stroke-width="0.966" stroke-linecap="round" stroke-linejoin="round"/>
<path opacity="0.3" d="M321.823 240.003L250.812 233.898C250.339 233.856 249.901 233.63 249.592 233.269C249.283 232.908 249.128 232.44 249.16 231.966C249.202 231.492 249.428 231.054 249.789 230.745C250.15 230.437 250.618 230.282 251.092 230.314L322.103 236.419C322.576 236.461 323.015 236.686 323.323 237.048C323.632 237.409 323.787 237.877 323.755 238.351C323.713 238.824 323.487 239.262 323.126 239.571C322.765 239.88 322.297 240.035 321.823 240.003Z" fill="white" fill-opacity="0.7"/>
<path d="M377.511 394.911C377.511 394.911 372.159 391.095 361.089 391.858C361.089 391.858 360.278 405.14 358.771 409.004C357.264 412.868 349.323 419.563 347.845 420.712C346.367 421.862 346.367 425.871 346.367 425.871H380.003C379.572 420.122 378.677 414.417 377.327 408.811L377.511 394.911Z" fill="white"/>
<mask id="mask4_1_55" style="mask-type:luminance" maskUnits="userSpaceOnUse" x="346" y="391" width="34" height="35">
<path d="M377.507 394.911C377.507 394.911 372.155 391.095 361.085 391.858C361.085 391.858 360.274 405.14 358.767 409.004C357.26 412.868 349.319 419.563 347.841 420.712C346.363 421.862 346.363 425.871 346.363 425.871H379.999C379.568 420.122 378.673 414.417 377.324 408.811L377.507 394.911Z" fill="white"/>
</mask>
<g mask="url(#mask4_1_55)">
<path opacity="0.4" d="M377.507 394.911C377.507 394.911 372.155 391.095 361.085 391.858C361.085 391.858 360.274 405.14 358.767 409.004C357.26 412.868 349.319 419.563 347.841 420.712C346.363 421.862 346.363 425.871 346.363 425.871H379.999C379.568 420.122 378.673 414.417 377.324 408.811L377.507 394.911Z" fill="#03D196"/>
</g>
<path d="M377.511 394.911C377.511 394.911 372.159 391.095 361.089 391.858C361.089 391.858 360.278 405.14 358.771 409.004C357.264 412.868 349.323 419.563 347.845 420.712C346.367 421.862 346.367 425.871 346.367 425.871H380.003C379.572 420.122 378.677 414.417 377.327 408.811L377.511 394.911Z" stroke="#263238" stroke-width="0.966" stroke-linecap="round" stroke-linejoin="round"/>
<path d="M370.568 396.63C370.568 396.63 369.776 408.86 367.873 412.086C366.857 413.859 365.602 415.484 364.145 416.916" stroke="#263238" stroke-width="0.966" stroke-linecap="round" stroke-linejoin="round"/>
<path d="M363.219 418.607C363.219 418.607 361.528 420.712 359.654 420.993C357.78 421.273 347.879 420.712 347.879 420.712L351.917 417.215C351.917 417.215 360.128 415.834 363.219 418.607Z" fill="#03D196" stroke="#263238" stroke-width="0.966" stroke-linecap="round" stroke-linejoin="round"/>
<path d="M366.711 415.737C366.711 415.737 359.544 411.622 354.434 414.771" stroke="#263238" stroke-width="0.966" stroke-linecap="round" stroke-linejoin="round"/>
<path d="M368.441 412.946C368.441 412.946 363.437 409.033 357.535 411.178" stroke="#263238" stroke-width="0.966" stroke-linecap="round" stroke-linejoin="round"/>
<path d="M370.566 408.686C370.566 408.686 365.176 404.493 359.496 407.159" stroke="#263238" stroke-width="0.966" stroke-linecap="round" stroke-linejoin="round"/>
<path d="M371.3 403.363C371.3 403.363 364.761 399.847 360.008 402.513" stroke="#263238" stroke-width="0.966" stroke-linecap="round" stroke-linejoin="round"/>
<path d="M379.993 425.871V428.353H376.129C376.129 428.353 372.816 426.421 369.667 428.353H351.525C349.608 428.347 347.716 427.922 345.98 427.107L346.357 425.871H379.993Z" fill="#03D196" stroke="#263238" stroke-width="0.966" stroke-linecap="round" stroke-linejoin="round"/>
<path d="M375.173 394.128L374.313 399.547C374.313 399.547 364.218 396.273 358.645 398.398V391.732C358.645 391.732 369.01 388.1 375.173 394.128Z" fill="#03D196" stroke="#263238" stroke-width="0.966" stroke-linecap="round" stroke-linejoin="round"/>
<path d="M386.091 259.11C386.091 259.11 364.636 263.312 343.587 256.492C338.794 254.965 334.209 252.849 329.937 250.194C329.937 250.194 329.995 248.842 330.034 246.629C330.208 237.993 330.16 216.268 325.61 210.887C322.712 207.497 320.442 186.535 326.035 175.938L343.143 162.182C366.829 166.809 371.833 173.078 375.745 186.602C376.47 189.075 377.146 191.79 377.899 194.784C378.72 198.049 379.493 202.039 380.227 206.376C383.782 227.976 386.091 259.11 386.091 259.11Z" fill="#999999"/>
<mask id="mask5_1_55" style="mask-type:luminance" maskUnits="userSpaceOnUse" x="322" y="162" width="65" height="99">
<path d="M386.095 259.11C386.095 259.11 364.64 263.312 343.591 256.492C338.798 254.965 334.213 252.849 329.941 250.194C329.941 250.194 329.999 248.842 330.038 246.629C330.212 237.993 330.163 216.268 325.614 210.887C322.716 207.497 320.446 186.535 326.039 175.938L343.147 162.182C366.833 166.809 371.837 173.078 375.749 186.602C376.474 189.075 377.15 191.79 377.903 194.784C378.724 198.049 379.497 202.039 380.231 206.376C383.786 227.976 386.095 259.11 386.095 259.11Z" fill="white"/>
</mask>
<g mask="url(#mask5_1_55)">
<path opacity="0.2" d="M380.224 206.376L370.564 249.527C370.564 249.527 356.605 253.391 343.593 256.492C338.797 254.966 334.209 252.85 329.934 250.194C329.934 250.194 329.992 248.842 330.03 246.629C341.719 240.65 358.778 231.859 358.643 231.444C358.421 230.797 358.643 208.26 358.643 208.26C358.643 208.26 374.099 204.676 375.741 186.573C376.466 189.046 377.142 191.761 377.896 194.755C378.717 198.03 379.489 201.991 380.224 206.376Z" fill="#028862"/>
</g>
<path d="M386.091 259.11C386.091 259.11 364.636 263.312 343.587 256.492C338.794 254.965 334.209 252.849 329.937 250.194C329.937 250.194 329.995 248.842 330.034 246.629C330.208 237.993 330.16 216.268 325.61 210.887C322.712 207.497 320.442 186.535 326.035 175.938L343.143 162.182C366.829 166.809 371.833 173.078 375.745 186.602C376.47 189.075 377.146 191.79 377.899 194.784C378.72 198.049 379.493 202.039 380.227 206.376C383.782 227.976 386.091 259.11 386.091 259.11Z" stroke="#263238" stroke-width="0.966" stroke-linecap="round" stroke-linejoin="round"/>
<path d="M343.9 144.127C343.9 144.127 336.346 154.946 346.392 163.389C346.392 163.389 334.201 177.068 330.192 175.184C328.502 174.392 330.192 169.456 330.192 169.456L323.121 156.376L343.9 144.127Z" fill="white" stroke="#263238" stroke-width="0.966" stroke-linecap="round" stroke-linejoin="round"/>
<path d="M341.434 149.73C343.791 139.423 342.66 124.073 328.219 125.435C318.095 126.401 310.879 132.004 313.729 145.586C314.917 151.314 315.893 159.429 321.148 166.751C322.606 168.78 337.869 161.602 336.942 155.797" fill="white"/>
<path d="M341.434 149.73C343.791 139.423 342.66 124.073 328.219 125.435C318.095 126.401 310.879 132.004 313.729 145.586C314.917 151.314 315.893 159.429 321.148 166.751C322.606 168.78 337.869 161.602 336.942 155.797" stroke="#263238" stroke-width="0.966" stroke-linecap="round" stroke-linejoin="round"/>
<path d="M320.77 143.287C321.788 142.892 322.885 142.742 323.972 142.848C325.059 142.953 326.106 143.312 327.029 143.895" stroke="#263238" stroke-width="0.966" stroke-linecap="round" stroke-linejoin="round"/>
<path d="M313.504 144.552C313.689 144.157 314.011 143.841 314.411 143.664C314.81 143.487 315.26 143.459 315.677 143.586" stroke="#263238" stroke-width="0.966" stroke-linecap="round" stroke-linejoin="round"/>
<path d="M317.118 146.697C317.118 146.697 314.142 152.116 314.133 152.889C314.123 153.662 317.794 153.922 317.794 153.922" fill="white"/>
<path d="M317.118 146.697C317.118 146.697 314.142 152.116 314.133 152.889C314.123 153.662 317.794 153.922 317.794 153.922" stroke="#263238" stroke-width="0.966" stroke-linecap="round" stroke-linejoin="round"/>
<path d="M323.516 147.798C323.516 148.387 323.255 148.87 322.888 148.89C322.521 148.909 322.212 148.426 322.192 147.837C322.173 147.247 322.453 146.764 322.82 146.755C323.187 146.745 323.496 147.228 323.516 147.798Z" fill="#263238"/>
<path d="M319.309 157.864C319.309 157.864 325.018 156.792 326.071 154.782" stroke="#263238" stroke-width="0.966" stroke-linecap="round" stroke-linejoin="round"/>
<path d="M313.467 136.206L317.91 134.912C317.91 134.912 324.141 132.014 325.464 132.419C326.788 132.825 329.473 136.95 329.386 139.307C329.386 139.307 333.579 142.997 334.11 148.349L335.385 147.769C335.385 147.769 335.318 142.939 338.061 143.065C340.804 143.19 342.041 146.475 341.857 147.508C341.674 148.542 338.67 152.831 338.67 152.831C338.67 152.831 345.547 151.807 345.77 138.341C345.992 124.875 331.231 122.682 324.054 123.233C320.42 123.581 316.769 123.716 313.119 123.638L313.525 127.502L310.627 128.266L312.81 130.941L310.414 132.033L313.467 136.206Z" fill="#263238"/>
<path d="M338.348 283.038C338.348 283.038 355.832 287.665 360.566 300.687" stroke="white" stroke-width="0.966" stroke-linecap="round" stroke-linejoin="round"/>
<path d="M346.358 290.042C346.358 290.042 336.91 305.778 322.449 313.95" stroke="white" stroke-width="0.966" stroke-linecap="round" stroke-linejoin="round"/>
<path d="M333.074 378.537C333.074 378.537 338.445 377.329 339.914 375.243" stroke="white" stroke-width="0.966" stroke-linecap="round" stroke-linejoin="round"/>
<path d="M362.98 380.536C362.98 380.536 368.235 377.812 373.471 380.536" stroke="white" stroke-width="0.966" stroke-linecap="round" stroke-linejoin="round"/>
<path d="M379.993 307.275C379.993 307.275 371.174 330.121 366.711 332.236" stroke="white" stroke-width="0.966" stroke-linecap="round" stroke-linejoin="round"/>
<path d="M341.375 271.494C341.617 273.977 352.001 285.482 360.569 290.042" stroke="white" stroke-width="0.966" stroke-linecap="round" stroke-linejoin="round"/>
<path d="M350.234 261.786C351.484 264.866 351.744 268.259 350.978 271.494C350.145 274.286 350.145 277.261 350.978 280.053" stroke="white" stroke-width="0.966" stroke-linecap="round" stroke-linejoin="round"/>
<path d="M331.34 214.278C331.34 214.278 347.598 235.318 365.073 242.225" stroke="#263238" stroke-width="0.966" stroke-linecap="round" stroke-linejoin="round"/>
<path d="M348.168 180.265C348.168 180.265 348.11 194.572 358.427 201.025" stroke="#263238" stroke-width="0.966" stroke-linecap="round" stroke-linejoin="round"/>
<path d="M353.971 201.141C351.788 203.285 354.165 230.198 354.165 230.198C354.165 230.198 341.481 235.163 337.511 238.361C333.541 241.558 314.733 248.9 314.733 248.9C314.733 248.9 311.835 258.772 315.447 259.11C319.06 259.448 356.473 246.697 365.032 242.225C365.032 242.225 370.606 209.381 370.567 201.025" fill="white"/>
<path d="M353.971 201.141C351.788 203.285 354.165 230.198 354.165 230.198C354.165 230.198 341.481 235.163 337.511 238.361C333.541 241.558 314.733 248.9 314.733 248.9C314.733 248.9 311.835 258.772 315.447 259.11C319.06 259.448 356.473 246.697 365.032 242.225C365.032 242.225 370.606 209.381 370.567 201.025" stroke="#263238" stroke-width="0.966" stroke-linecap="round" stroke-linejoin="round"/>
<path d="M316.219 248.31C314.481 247.982 311.389 246.842 309.766 247.219C308.144 247.595 305.178 249.383 302.125 250.117C299.073 250.851 300.338 252.049 302.125 252.406C303.433 252.624 304.768 252.624 306.076 252.406L303.594 254.831C302.172 255.6 300.704 256.281 299.198 256.869C298.3 256.869 295.122 257.729 295.334 259.081C295.547 260.434 297.373 260.279 299.411 260.356C299.411 260.356 296.165 261.004 296.513 262.849C296.725 264.114 300.377 262.974 302.241 262.974C302.241 262.974 300.715 264.636 301.855 265.148C302.995 265.66 305.526 264.385 305.526 264.385C305.526 264.385 305.429 265.756 306.569 265.892C307.709 266.027 310.578 264.926 312.529 263.747C314.451 262.509 316.29 261.147 318.035 259.67C318.774 258.995 319.62 258.447 320.537 258.048" fill="white"/>
<path d="M316.219 248.31C314.481 247.982 311.389 246.842 309.766 247.219C308.144 247.595 305.178 249.383 302.125 250.117C299.073 250.851 300.338 252.049 302.125 252.406C303.433 252.624 304.768 252.624 306.076 252.406L303.594 254.831C302.172 255.6 300.704 256.281 299.198 256.869C298.3 256.869 295.122 257.729 295.334 259.081C295.547 260.434 297.373 260.279 299.411 260.356C299.411 260.356 296.165 261.004 296.513 262.849C296.725 264.114 300.377 262.974 302.241 262.974C302.241 262.974 300.715 264.636 301.855 265.148C302.995 265.66 305.526 264.385 305.526 264.385C305.526 264.385 305.429 265.756 306.569 265.892C307.709 266.027 310.578 264.926 312.529 263.747C314.451 262.509 316.29 261.147 318.035 259.67C318.774 258.995 319.62 258.447 320.537 258.048" stroke="#263238" stroke-width="0.966" stroke-linecap="round" stroke-linejoin="round"/>
<path d="M299.457 260.395C300.354 260.346 301.248 260.243 302.133 260.086C302.896 259.893 303.659 259.641 303.659 259.641" stroke="#263238" stroke-width="0.966" stroke-linecap="round" stroke-linejoin="round"/>
<path d="M302.25 263.013C303.417 262.849 304.542 262.462 305.563 261.873" stroke="#263238" stroke-width="0.966" stroke-linecap="round" stroke-linejoin="round"/>
<path d="M305.535 264.423C306.399 264.314 307.225 264.007 307.95 263.525" stroke="#263238" stroke-width="0.966" stroke-linecap="round" stroke-linejoin="round"/>
<path d="M303.903 255.565C303.903 255.565 303.207 257.159 303.903 258.048C304.598 258.936 305.439 259.014 305.564 259.98C305.69 260.946 307.351 260.946 307.95 261.574C308.549 262.201 309.003 263.409 310.916 263.506" stroke="#263238" stroke-width="0.966" stroke-linecap="round" stroke-linejoin="round"/>
<path d="M353.158 173.233C346.58 188.119 353.158 208.772 353.158 208.772C353.158 208.772 369.078 214.182 370.546 211.853C372.014 209.525 374.7 198.107 375.154 192.833" fill="#999999"/>
<path d="M353.158 173.233C346.58 188.119 353.158 208.772 353.158 208.772C353.158 208.772 369.078 214.182 370.546 211.853C372.014 209.525 374.7 198.107 375.154 192.833" stroke="#263238" stroke-width="0.966" stroke-linecap="round" stroke-linejoin="round"/>
<path d="M370.568 194.485C370.568 194.485 363.806 203.787 358.426 203.913" stroke="#263238" stroke-width="0.966" stroke-linecap="round" stroke-linejoin="round"/>
<path d="M128.869 428.353C128.869 428.353 127.217 422.045 129.149 419.708C132.607 415.515 128.724 411.98 132.201 410.54L133.66 412.231C133.94 410.521 133.129 405.295 139.582 404.619C147.387 403.798 147.532 409.449 147.957 411.381L147.822 408.763C151.154 408.763 149.425 412.086 154.468 417.515C155.79 418.981 156.796 420.703 157.424 422.574C158.052 424.445 158.289 426.426 158.119 428.392L128.869 428.353Z" fill="#263238"/>
<path d="M188.368 428.353C185.228 426.953 188.107 415.11 188.107 415.11C188.107 415.11 183.885 412.279 188.107 409.314C189.74 410.697 191.719 411.608 193.832 411.949C195.945 412.289 198.11 412.046 200.095 411.246C200.095 411.246 200.916 403.324 205.891 404.339C205.891 404.339 207.166 409.362 210.074 412.231C217.947 419.959 228.119 420.925 229.819 424.634C230.331 425.755 229.712 428.315 229.712 428.315L188.368 428.353Z" fill="#263238"/>
<path d="M174.95 239.481L178.814 247.673C178.814 247.673 194.791 280.691 204.577 318.5C204.809 319.398 209.87 337.308 205.813 381.908L208.132 389.733L205.601 402.658C205.601 402.658 209.407 408.154 209.271 409.951C209.271 409.951 199.882 411.7 196.713 413.38C194.279 414.694 186.967 421.91 186.967 421.91C184.89 421.485 184.706 413.1 184.706 413.1C184.706 413.1 180.369 338.651 179.123 335.444C177.876 332.236 170.264 318.403 158.383 286.747C158.383 286.747 158.112 330.961 154.944 342.148C152.113 352.097 155.465 379.947 155.465 379.947L153.533 410.946C153.533 410.946 160.218 417.892 154.799 419.756C154.799 419.756 151.176 412.791 140.859 411.207C135.614 410.395 129.084 419.708 129.084 419.708C126.785 418.974 130.05 407.275 130.05 407.275C122.737 352.097 128.118 362.086 126.669 335.115C125.703 317.804 120.825 243.751 126.582 237.733L174.95 239.481Z" fill="#BFBFBF"/>
<mask id="mask6_1_55" style="mask-type:luminance" maskUnits="userSpaceOnUse" x="123" y="237" width="87" height="185">
<path d="M174.95 239.481L178.814 247.673C178.814 247.673 194.791 280.691 204.577 318.5C204.809 319.398 209.87 337.308 205.813 381.908L208.132 389.733L205.601 402.658C205.601 402.658 209.407 408.154 209.271 409.951C209.271 409.951 199.882 411.7 196.713 413.38C194.279 414.694 186.967 421.91 186.967 421.91C184.89 421.485 184.706 413.1 184.706 413.1C184.706 413.1 180.369 338.651 179.123 335.444C177.876 332.236 170.264 318.403 158.383 286.747C158.383 286.747 158.112 330.961 154.944 342.148C152.113 352.097 155.465 379.947 155.465 379.947L153.533 410.946C153.533 410.946 160.218 417.892 154.799 419.756C154.799 419.756 151.176 412.791 140.859 411.207C135.614 410.395 129.084 419.708 129.084 419.708C126.785 418.974 130.05 407.275 130.05 407.275C122.737 352.097 128.118 362.086 126.669 335.115C125.703 317.804 120.825 243.751 126.582 237.733L174.95 239.481Z" fill="white"/>
</mask>
<g mask="url(#mask6_1_55)">
<path opacity="0.2" d="M123.895 264.984C149.725 267.012 172.088 258.56 181.797 254.145C179.952 250.011 178.821 247.673 178.821 247.673L174.957 239.491L126.657 237.733C124.609 239.906 123.885 250.948 123.895 264.984Z" fill="#028862"/>
<path opacity="0.2" d="M158.641 287.317C170.397 318.568 177.961 332.246 179.178 335.434C179.883 337.289 181.612 362.569 182.965 383.782C184.51 364.462 186.104 344.109 186.239 340.119C186.529 332.159 180.781 321.253 179.922 318.432C179.062 315.612 181.004 312.559 181.004 312.559L170.667 299.518C171.015 295.094 165.538 275.783 165.538 275.783C162.282 278.865 159.384 285.424 158.641 287.317Z" fill="#028862"/>
</g>
<path d="M174.95 239.481L178.814 247.673C178.814 247.673 194.791 280.691 204.577 318.5C204.809 319.398 209.87 337.308 205.813 381.908L208.132 389.733L205.601 402.658C205.601 402.658 209.407 408.154 209.271 409.951C209.271 409.951 199.882 411.7 196.713 413.38C194.279 414.694 186.967 421.91 186.967 421.91C184.89 421.485 184.706 413.1 184.706 413.1C184.706 413.1 180.369 338.651 179.123 335.444C177.876 332.236 170.264 318.403 158.383 286.747C158.383 286.747 158.112 330.961 154.944 342.148C152.113 352.097 155.465 379.947 155.465 379.947L153.533 410.946C153.533 410.946 160.218 417.892 154.799 419.756C154.799 419.756 151.176 412.791 140.859 411.207C135.614 410.395 129.084 419.708 129.084 419.708C126.785 418.974 130.05 407.275 130.05 407.275C122.737 352.097 128.118 362.086 126.669 335.115C125.703 317.804 120.825 243.751 126.582 237.733L174.95 239.481Z" stroke="#263238" stroke-width="0.966" stroke-linecap="round" stroke-linejoin="round"/>
<path d="M158.418 286.747C158.418 286.747 164.32 275.358 169.353 272.18" stroke="#263238" stroke-width="0.966" stroke-linecap="round" stroke-linejoin="round"/>
<path d="M171.58 268.49C171.58 268.49 153.651 273.948 147.43 275.001" stroke="#263238" stroke-width="0.966" stroke-linecap="round" stroke-linejoin="round"/>
<path d="M162.4 250.194C163.173 265.119 168.438 267.659 163.366 270.915C163.366 270.915 163.511 277.899 160.98 282.323" stroke="#263238" stroke-width="0.966" stroke-linecap="round" stroke-linejoin="round"/>
<path d="M130.989 244.485C130.989 244.485 133.104 267.427 126.043 271.746" stroke="#263238" stroke-width="0.966" stroke-linecap="round" stroke-linejoin="round"/>
<path d="M126.041 251.885C126.041 251.885 125.51 267.157 126.041 279.464C126.041 279.464 127.809 331.483 129.576 338.013C131.344 344.543 126.852 354.435 127.239 382.662" stroke="#263238" stroke-width="0.966" stroke-linecap="round" stroke-linejoin="round"/>
<path d="M142.964 404.754C141.292 404.39 139.546 404.623 138.027 405.411" stroke="#263238" stroke-width="0.966" stroke-linecap="round" stroke-linejoin="round"/>
<path d="M153.589 410.946C151.373 408.79 148.805 407.029 145.996 405.739" stroke="#263238" stroke-width="0.966" stroke-linecap="round" stroke-linejoin="round"/>
<path d="M150.693 290.351C146.732 294.794 140.453 303.17 134.02 303.875" stroke="#263238" stroke-width="0.966" stroke-linecap="round" stroke-linejoin="round"/>
<path d="M156.748 283.125C155.531 284.661 154.275 286.168 153 287.665" stroke="#263238" stroke-width="0.966" stroke-linecap="round" stroke-linejoin="round"/>
<path d="M151.107 335.115C151.107 335.115 142.104 347.374 137.168 348.079" stroke="#263238" stroke-width="0.966" stroke-linecap="round" stroke-linejoin="round"/>
<path d="M161.695 284.535C161.695 284.535 177.731 329.194 183.305 333.599C183.305 333.599 183.933 366.443 184.116 377.909C184.3 389.375 186.937 404.619 186.937 404.619" stroke="#263238" stroke-width="0.966" stroke-linecap="round" stroke-linejoin="round"/>
<path d="M204.055 404.29C204.055 404.29 197.882 406.425 194.878 407.787C193.033 408.688 191.587 410.24 190.82 412.144" stroke="#263238" stroke-width="0.966" stroke-linecap="round" stroke-linejoin="round"/>
<path d="M188.435 317.495C179.828 312.095 168.477 305.343 163.898 295.828" stroke="#263238" stroke-width="0.966" stroke-linecap="round" stroke-linejoin="round"/>
<path d="M195.943 321.948C194.311 321.05 192.707 320.113 191.113 319.147" stroke="#263238" stroke-width="0.966" stroke-linecap="round" stroke-linejoin="round"/>
<path d="M168.814 256.232C164.187 256.164 159.154 255.555 155.164 252.938" stroke="#263238" stroke-width="0.966" stroke-linecap="round" stroke-linejoin="round"/>
<path d="M176.165 255.797C174.842 255.98 173.509 256.096 172.176 256.164" stroke="#263238" stroke-width="0.966" stroke-linecap="round" stroke-linejoin="round"/>
<path d="M184.754 153.246C181.218 147.895 163.202 146.533 151.639 146.533C140.076 146.533 126.04 144.601 119.703 157.642C114.873 167.601 126.002 220.267 126.002 220.267L123.278 243.007C144.22 249.576 180.098 248.127 180.098 248.127L175.268 227.57C175.268 227.57 188.289 158.588 184.754 153.246Z" fill="#263238"/>
<path d="M144.772 133.308C144.772 133.308 146.327 145.702 141.613 148.378C141.613 148.378 143.97 157.468 152.239 158.038C160.508 158.608 164.16 149.73 164.16 149.73L144.772 133.308Z" fill="white" stroke="#263238" stroke-width="0.966" stroke-linecap="round" stroke-linejoin="round"/>
<path d="M188.594 101.486L209.756 99.5341C210.236 99.4898 210.714 99.6379 211.084 99.9458C211.454 100.254 211.687 100.696 211.732 101.176L213.125 116.278L188.384 118.56L186.991 103.458C186.947 102.985 187.091 102.513 187.39 102.145C187.69 101.776 188.122 101.54 188.594 101.486Z" fill="#03D196"/>
<mask id="mask7_1_55" style="mask-type:luminance" maskUnits="userSpaceOnUse" x="186" y="99" width="28" height="20">
<path d="M188.59 101.486L209.752 99.5339C210.232 99.4897 210.71 99.6378 211.08 99.9457C211.45 100.254 211.683 100.696 211.728 101.176L213.121 116.278L188.38 118.56L186.987 103.458C186.943 102.985 187.087 102.513 187.386 102.145C187.686 101.776 188.118 101.54 188.59 101.486Z" fill="white"/>
</mask>
<g mask="url(#mask7_1_55)">
<path opacity="0.3" d="M188.59 101.486L209.752 99.5339C210.232 99.4897 210.71 99.6378 211.08 99.9457C211.45 100.254 211.683 100.696 211.728 101.176L213.121 116.278L188.38 118.56L186.987 103.458C186.943 102.985 187.087 102.513 187.386 102.145C187.686 101.776 188.118 101.54 188.59 101.486Z" fill="black" fill-opacity="0.7"/>
<path opacity="0.3" d="M210.37 101.062L204.281 101.623L205.405 113.801L211.493 113.24L210.37 101.062Z" fill="white" fill-opacity="0.7"/>
</g>
<path d="M188.594 101.486L209.756 99.5341C210.236 99.4898 210.714 99.6379 211.084 99.9458C211.454 100.254 211.687 100.696 211.732 101.176L213.125 116.278L188.384 118.56L186.991 103.458C186.947 102.985 187.091 102.513 187.39 102.145C187.69 101.776 188.122 101.54 188.594 101.486Z" stroke="#263238" stroke-width="0.966" stroke-linecap="round" stroke-linejoin="round"/>
<path d="M225.183 98.0911L246.346 96.1391C246.825 96.0949 247.303 96.243 247.673 96.5509C248.044 96.8587 248.277 97.3011 248.321 97.7808L249.714 112.883L224.935 115.168L223.542 100.066C223.498 99.5867 223.646 99.1092 223.954 98.7388C224.261 98.3683 224.704 98.1354 225.183 98.0911Z" fill="#03D196"/>
<mask id="mask8_1_55" style="mask-type:luminance" maskUnits="userSpaceOnUse" x="223" y="96" width="27" height="20">
<path d="M225.183 98.0911L246.345 96.1391C246.825 96.0949 247.303 96.243 247.673 96.5509C248.043 96.8587 248.276 97.3011 248.321 97.7808L249.714 112.883L224.935 115.168L223.542 100.066C223.497 99.5867 223.645 99.1092 223.953 98.7388C224.261 98.3683 224.704 98.1354 225.183 98.0911Z" fill="white"/>
</mask>
<g mask="url(#mask8_1_55)">
<path opacity="0.3" d="M225.183 98.0911L246.345 96.1391C246.825 96.0949 247.303 96.243 247.673 96.5509C248.043 96.8587 248.276 97.3011 248.321 97.7808L249.714 112.883L224.935 115.168L223.542 100.066C223.497 99.5867 223.645 99.1092 223.953 98.7388C224.261 98.3683 224.704 98.1354 225.183 98.0911Z" fill="black" fill-opacity="0.7"/>
<path opacity="0.3" d="M246.526 97.7367L242.851 98.0757L243.975 110.254L247.649 109.915L246.526 97.7367Z" fill="white" fill-opacity="0.7"/>
</g>
<path d="M225.183 98.0911L246.346 96.1391C246.825 96.0949 247.303 96.243 247.673 96.5509C248.044 96.8587 248.277 97.3011 248.321 97.7808L249.714 112.883L224.935 115.168L223.542 100.066C223.498 99.5867 223.646 99.1092 223.954 98.7388C224.261 98.3683 224.704 98.1354 225.183 98.0911Z" stroke="#263238" stroke-width="0.966" stroke-linecap="round" stroke-linejoin="round"/>
<path d="M217.491 98.7944L238.654 96.8424C239.133 96.7982 239.611 96.9463 239.981 97.2541C240.352 97.562 240.585 98.0044 240.629 98.484L242.022 113.586L217.204 115.875L215.811 100.773C215.789 100.532 215.815 100.29 215.888 100.059C215.961 99.8285 216.079 99.6148 216.235 99.4305C216.392 99.2462 216.584 99.095 216.799 98.9858C217.015 98.8766 217.25 98.8115 217.491 98.7944Z" fill="#03D196" stroke="#263238" stroke-width="0.966" stroke-linecap="round" stroke-linejoin="round"/>
<path d="M254.047 95.4223L275.209 93.4703C275.688 93.4261 276.166 93.5742 276.536 93.882C276.907 94.1899 277.14 94.6323 277.184 95.1119L278.577 110.214L253.798 112.5L252.405 97.3975C252.361 96.9179 252.509 96.4403 252.817 96.0699C253.125 95.6995 253.567 95.4665 254.047 95.4223Z" fill="#03D196" stroke="#263238" stroke-width="0.966" stroke-linecap="round" stroke-linejoin="round"/>
<path opacity="0.3" d="M239.237 98.4025L233.148 98.9641L234.272 111.142L240.361 110.58L239.237 98.4025Z" fill="white" fill-opacity="0.7"/>
<path opacity="0.3" d="M275.386 95.0579L269.297 95.6195L270.42 107.797L276.509 107.236L275.386 95.0579Z" fill="white" fill-opacity="0.7"/>
<path d="M289.032 105.7L295.446 175.136L183.535 185.472L177.159 116.017C177.052 114.856 177.41 113.7 178.154 112.804C178.899 111.907 179.969 111.343 181.13 111.235L284.26 101.72C284.835 101.667 285.414 101.728 285.966 101.899C286.517 102.071 287.029 102.349 287.472 102.719C287.916 103.089 288.282 103.542 288.549 104.054C288.817 104.565 288.981 105.125 289.032 105.7Z" fill="#03D196"/>
<mask id="mask9_1_55" style="mask-type:luminance" maskUnits="userSpaceOnUse" x="177" y="101" width="119" height="85">
<path d="M289.032 105.7L295.446 175.136L183.535 185.472L177.159 116.017C177.052 114.856 177.41 113.7 178.154 112.804C178.899 111.907 179.969 111.343 181.13 111.235L284.26 101.72C284.835 101.667 285.414 101.728 285.966 101.899C286.517 102.071 287.029 102.349 287.472 102.719C287.916 103.089 288.282 103.542 288.549 104.054C288.817 104.565 288.981 105.125 289.032 105.7Z" fill="white"/>
</mask>
<g mask="url(#mask9_1_55)">
<path opacity="0.3" d="M289.032 105.7L295.446 175.136L183.535 185.472L177.159 116.017C177.052 114.856 177.41 113.7 178.154 112.804C178.899 111.907 179.969 111.343 181.13 111.235L284.26 101.72C284.835 101.667 285.414 101.728 285.966 101.899C286.517 102.071 287.029 102.349 287.472 102.719C287.916 103.089 288.282 103.542 288.549 104.054C288.817 104.565 288.981 105.125 289.032 105.7Z" fill="black" fill-opacity="0.7"/>
</g>
<path d="M289.032 105.7L295.446 175.136L183.535 185.472L177.159 116.017C177.052 114.856 177.41 113.7 178.154 112.804C178.899 111.907 179.969 111.343 181.13 111.235L284.26 101.72C284.835 101.667 285.414 101.728 285.966 101.899C286.517 102.071 287.029 102.349 287.472 102.719C287.916 103.089 288.282 103.542 288.549 104.054C288.817 104.565 288.981 105.125 289.032 105.7Z" stroke="#263238" stroke-width="0.966" stroke-linecap="round" stroke-linejoin="round"/>
<path d="M289.034 105.7L295.449 175.136L212.373 182.796L205.968 113.36C205.86 112.2 206.218 111.044 206.963 110.147C207.707 109.25 208.778 108.686 209.938 108.578L284.214 101.72C284.793 101.66 285.377 101.716 285.934 101.884C286.491 102.052 287.009 102.33 287.458 102.7C287.906 103.071 288.277 103.527 288.547 104.042C288.818 104.557 288.984 105.12 289.034 105.7Z" fill="#03D196" stroke="#263238" stroke-width="0.966" stroke-linecap="round" stroke-linejoin="round"/>
<path opacity="0.3" d="M283.647 108.685L212.675 115.234C212.203 115.267 211.736 115.113 211.375 114.806C211.014 114.499 210.787 114.064 210.743 113.592C210.708 113.12 210.86 112.654 211.165 112.293C211.47 111.931 211.905 111.704 212.376 111.66L283.348 105.111C283.82 105.078 284.287 105.232 284.648 105.539C285.009 105.845 285.236 106.281 285.28 106.753C285.31 107.223 285.157 107.687 284.852 108.047C284.548 108.407 284.116 108.636 283.647 108.685Z" fill="white" fill-opacity="0.7"/>
<path d="M158.941 108.733C158.941 108.733 142.567 105.449 140.732 115.988C138.897 126.527 144.895 131.009 144.895 131.009L158.941 108.733Z" fill="#263238"/>
<path d="M144.898 136.795C143.027 131.556 142.734 125.883 144.057 120.48C145.661 113.718 153.717 104.415 165.937 112.867C172.226 117.224 172.612 126.681 170.651 135.337C170.188 137.404 170.535 139.423 169.849 141.326C167.434 147.991 163.02 153.121 160.605 153.237C156.577 153.439 148.52 148.561 148.849 144.311" fill="white"/>
<path d="M144.898 136.795C143.027 131.556 142.734 125.883 144.057 120.48C145.661 113.718 153.717 104.415 165.937 112.867C172.226 117.224 172.612 126.681 170.651 135.337C170.188 137.404 170.535 139.423 169.849 141.326C167.434 147.991 163.02 153.121 160.605 153.237C156.577 153.439 148.52 148.561 148.849 144.311" stroke="#263238" stroke-width="0.966" stroke-linecap="round" stroke-linejoin="round"/>
<path d="M161.214 133.733C161.214 133.733 157.958 131.376 154.828 133.308" stroke="#263238" stroke-width="0.966" stroke-linecap="round" stroke-linejoin="round"/>
<path d="M167.355 133.308C167.355 133.308 169.819 131.048 171.422 131.376" stroke="#263238" stroke-width="0.966" stroke-linecap="round" stroke-linejoin="round"/>
<path d="M156.613 137.346C156.613 137.945 156.913 138.438 157.289 138.438C157.666 138.438 157.975 137.945 157.975 137.346C157.975 136.747 157.666 136.264 157.289 136.264C156.913 136.264 156.613 136.747 156.613 137.346Z" fill="#263238"/>
<path d="M167.354 137.829C167.733 137.829 168.04 137.345 168.04 136.747C168.04 136.15 167.733 135.665 167.354 135.665C166.975 135.665 166.668 136.15 166.668 136.747C166.668 137.345 166.975 137.829 167.354 137.829Z" fill="#263238"/>
<path d="M165.975 135.588C164.778 137.153 166.458 143.113 165.975 143.538C165.492 143.963 162.421 142.755 162.421 142.755C162.421 142.755 161.706 141.847 163.203 141.364" stroke="#263238" stroke-width="0.966" stroke-linecap="round" stroke-linejoin="round"/>
<path d="M163.253 146.533C163.253 146.533 159.129 146.533 158.027 145.026" stroke="#263238" stroke-width="0.966" stroke-linecap="round" stroke-linejoin="round"/>
<path d="M153.376 124.208L153.057 129.193C153.057 129.193 149.522 131.019 148.633 132.873C148.104 134.088 147.91 135.422 148.073 136.737C148.073 136.737 145.928 132.989 144.769 133.298C144.353 133.405 144.353 134.979 144.353 134.979C144.353 134.979 139.523 124.199 143.89 118.499C148.256 112.8 153.376 124.208 153.376 124.208Z" fill="#757575" stroke="#263238" stroke-width="0.966" stroke-linecap="round" stroke-linejoin="round"/>
<path d="M146.57 135.665C146.57 135.665 145.604 132.043 142.348 131.086C139.093 130.13 141.324 138.814 144.097 139.944C146.869 141.075 147.565 141.876 147.729 140.843" fill="white"/>
<path d="M146.57 135.665C146.57 135.665 145.604 132.043 142.348 131.086C139.093 130.13 141.324 138.814 144.097 139.944C146.869 141.075 147.565 141.876 147.729 140.843" stroke="#263238" stroke-width="0.966" stroke-linecap="round" stroke-linejoin="round"/>
<path d="M142.133 123.58C141.863 123.213 140.665 113.92 146.799 109.747C152.933 105.574 163.298 106.019 169.896 111.795C176.494 117.572 174.62 127.589 169.896 131.009V126.826C169.896 126.826 167.723 131.019 161.202 131.366L163.192 128.295C163.192 128.295 159.985 130.227 154.334 130.062C154.334 130.062 156.99 127.947 156.604 126.063C156.614 126.063 147.64 131.115 142.133 123.58Z" fill="#263238"/>
<path d="M143.285 157.081C138.764 157.622 132.331 163.525 136.523 174.006C139.199 180.652 161.185 176.701 161.185 176.701C169.338 173.339 181.249 161.245 189.991 155.632C189.991 155.632 188.146 144.04 186.021 145.683C176.139 153.246 168.015 153.768 154.23 160.395C154.259 160.356 146.125 156.743 143.285 157.081Z" fill="white" stroke="#263238" stroke-width="0.966" stroke-linecap="round" stroke-linejoin="round"/>
<path d="M153.378 169.948C153.243 174.276 155.02 175.039 158.015 176.063L153.378 169.948Z" fill="white"/>
<path d="M153.378 169.948C153.243 174.276 155.02 175.039 158.015 176.063" stroke="#263238" stroke-width="0.966" stroke-linecap="round" stroke-linejoin="round"/>
<path d="M185.359 146.533C185.562 145.905 189.223 139.471 190.257 137.839C191.291 136.206 195.908 134.728 197.695 133.743C199.482 132.757 199.627 131.26 200.593 132.332C201.559 133.405 200.593 135.849 195.242 138.447C197.143 138.552 199.049 138.552 200.951 138.447C202.38 138.235 203.655 136.94 204.293 137.839C204.931 138.737 205.056 140.35 201.868 141.335C200.352 141.885 198.764 142.211 197.154 142.302C198.714 142.635 200.247 143.08 201.743 143.635C202.255 144.011 203.018 144.89 203.781 145.026C204.544 145.161 205.375 145.992 203.974 146.958C203.477 147.232 202.921 147.381 202.354 147.391C201.786 147.401 201.225 147.272 200.719 147.016C200.719 147.016 204.419 148.803 203.269 149.914C202.119 151.024 198.439 150.802 198.439 150.802C198.439 150.802 192.981 157.458 188.364 156.067" fill="white"/>
<path d="M185.359 146.533C185.562 145.905 189.223 139.471 190.257 137.839C191.291 136.206 195.908 134.728 197.695 133.743C199.482 132.757 199.627 131.26 200.593 132.332C201.559 133.405 200.593 135.849 195.242 138.447C197.143 138.552 199.049 138.552 200.951 138.447C202.38 138.235 203.655 136.94 204.293 137.839C204.931 138.737 205.056 140.35 201.868 141.336C200.352 141.885 198.764 142.211 197.154 142.301C198.714 142.635 200.247 143.08 201.743 143.635C202.255 144.011 203.018 144.89 203.781 145.026C204.544 145.161 205.375 145.992 203.974 146.958C203.477 147.232 202.921 147.381 202.354 147.391C201.786 147.401 201.225 147.272 200.719 147.016C200.719 147.016 204.419 148.803 203.269 149.914C202.119 151.024 198.439 150.802 198.439 150.802C198.439 150.802 192.981 157.458 188.364 156.067" stroke="#263238" stroke-width="0.966" stroke-linecap="round" stroke-linejoin="round"/>
<path d="M191.898 137.829C192.211 137.901 192.497 138.059 192.725 138.284C192.954 138.509 193.116 138.793 193.193 139.104C193.512 140.244 194.449 140.312 195.019 141.587C195.589 142.862 195.424 144.832 195.985 145.509C196.545 146.185 195.985 149.035 195.985 149.035" stroke="#263238" stroke-width="0.966" stroke-linecap="round" stroke-linejoin="round"/>
<path d="M144.23 156.26C141.864 153.246 136.551 154.608 136.551 154.608" stroke="white" stroke-width="0.966" stroke-linecap="round" stroke-linejoin="round"/>
<path d="M133.652 149.054C133.652 149.054 139.12 149.856 140.733 154.405" stroke="white" stroke-width="0.966" stroke-linecap="round" stroke-linejoin="round"/>
<path d="M143.283 177.86C143.283 177.86 137.95 181.985 129.836 176.063" stroke="white" stroke-width="0.966" stroke-linecap="round" stroke-linejoin="round"/>
<path d="M136.551 179.106C136.551 179.106 133.846 182.844 127.258 182.796" stroke="white" stroke-width="0.966" stroke-linecap="round" stroke-linejoin="round"/>
<path d="M170.437 226.141C170.437 226.141 156.488 237.259 142.316 235.801" stroke="white" stroke-width="0.966" stroke-linecap="round" stroke-linejoin="round"/>
<path d="M132.731 201.71C132.731 201.71 154.379 217.591 170.405 218.606" stroke="white" stroke-width="0.966" stroke-linecap="round" stroke-linejoin="round"/>
<path d="M133.309 319.273C137.033 317.207 141.411 316.66 145.528 317.746C152.59 319.524 170.934 345.76 173.485 348.32C176.035 350.88 180.807 352.184 185.202 356.811C192.157 364.066 202.271 370.48 203.295 370.48C204.319 370.48 205.14 369.843 206.415 369.592C207.691 369.34 217.563 368.442 217.563 368.442C217.563 368.442 220.876 369.176 217.563 370.596C214.25 372.016 214.501 373.282 214.501 373.282C214.501 373.282 213.834 374.354 215.167 375.378C216.501 376.402 217.283 375.842 219.186 378.537C221.089 381.232 216.501 379.706 216.501 379.706C216.501 379.706 217.515 382.604 215.477 382.314C213.438 382.024 215.225 385.144 211.912 384.719C208.599 384.294 201.508 379.821 199.731 375.136C199.731 375.136 170.809 361.313 166.481 357.748C162.153 354.184 143.935 335.067 142.688 334.816" fill="#263238"/>
<path d="M208.972 345.161H230.224C230.706 345.161 231.168 345.353 231.508 345.693C231.849 346.034 232.04 346.496 232.04 346.977V362.144H207.156V346.977C207.156 346.496 207.348 346.034 207.688 345.693C208.029 345.353 208.491 345.161 208.972 345.161Z" fill="#03D196"/>
<mask id="mask10_1_55" style="mask-type:luminance" maskUnits="userSpaceOnUse" x="207" y="345" width="26" height="18">
<path d="M208.976 345.161H230.228C230.71 345.161 231.172 345.353 231.512 345.693C231.853 346.034 232.044 346.496 232.044 346.977V362.144H207.16V346.977C207.16 346.496 207.351 346.034 207.692 345.693C208.033 345.353 208.495 345.161 208.976 345.161Z" fill="white"/>
</mask>
<g mask="url(#mask10_1_55)">
<path opacity="0.3" d="M208.976 345.161H230.228C230.71 345.161 231.172 345.353 231.512 345.693C231.853 346.034 232.044 346.496 232.044 346.977V362.144H207.16V346.977C207.16 346.496 207.351 346.034 207.692 345.693C208.033 345.353 208.495 345.161 208.976 345.161Z" fill="black" fill-opacity="0.7"/>
<path opacity="0.3" d="M230.666 346.765H224.551V358.994H230.666V346.765Z" fill="white" fill-opacity="0.7"/>
</g>
<path d="M208.972 345.161H230.224C230.706 345.161 231.168 345.353 231.508 345.693C231.849 346.034 232.04 346.496 232.04 346.977V362.144H207.156V346.977C207.156 346.496 207.348 346.034 207.688 345.693C208.029 345.353 208.491 345.161 208.972 345.161Z" stroke="#263238" stroke-width="0.966" stroke-linecap="round" stroke-linejoin="round"/>
<path d="M245.683 345.161H266.935C267.417 345.161 267.879 345.353 268.219 345.693C268.56 346.034 268.751 346.496 268.751 346.977V362.144H243.867V346.977C243.867 346.739 243.914 346.503 244.005 346.282C244.097 346.062 244.23 345.862 244.399 345.693C244.568 345.525 244.768 345.391 244.988 345.3C245.209 345.208 245.445 345.161 245.683 345.161Z" fill="#03D196"/>
<mask id="mask11_1_55" style="mask-type:luminance" maskUnits="userSpaceOnUse" x="243" y="345" width="26" height="18">
<path d="M245.679 345.161H266.931C267.413 345.161 267.875 345.353 268.216 345.693C268.556 346.034 268.747 346.496 268.747 346.977V362.144H243.863V346.977C243.863 346.739 243.91 346.503 244.002 346.282C244.093 346.062 244.227 345.862 244.395 345.693C244.564 345.525 244.764 345.391 244.984 345.3C245.205 345.208 245.441 345.161 245.679 345.161Z" fill="white"/>
</mask>
<g mask="url(#mask11_1_55)">
<path opacity="0.3" d="M245.679 345.161H266.931C267.413 345.161 267.875 345.353 268.216 345.693C268.556 346.034 268.747 346.496 268.747 346.977V362.144H243.863V346.977C243.863 346.739 243.91 346.503 244.002 346.282C244.093 346.062 244.227 345.862 244.395 345.693C244.564 345.525 244.764 345.391 244.984 345.3C245.205 345.208 245.441 345.161 245.679 345.161Z" fill="black" fill-opacity="0.7"/>
<path opacity="0.3" d="M266.96 346.765H263.27V358.994H266.96V346.765Z" fill="white" fill-opacity="0.7"/>
</g>
<path d="M245.683 345.161H266.935C267.417 345.161 267.879 345.353 268.219 345.693C268.56 346.034 268.751 346.496 268.751 346.977V362.144H243.867V346.977C243.867 346.739 243.914 346.503 244.005 346.282C244.097 346.062 244.23 345.862 244.399 345.693C244.568 345.525 244.768 345.391 244.988 345.3C245.209 345.208 245.445 345.161 245.683 345.161Z" stroke="#263238" stroke-width="0.966" stroke-linecap="round" stroke-linejoin="round"/>
<path d="M237.957 345.161H259.209C259.69 345.161 260.152 345.353 260.493 345.693C260.833 346.034 261.025 346.496 261.025 346.977V362.144H236.141V346.977C236.141 346.739 236.188 346.503 236.279 346.282C236.37 346.062 236.504 345.862 236.673 345.693C236.841 345.525 237.041 345.391 237.262 345.3C237.482 345.208 237.718 345.161 237.957 345.161Z" fill="#03D196" stroke="#263238" stroke-width="0.966" stroke-linecap="round" stroke-linejoin="round"/>
<path d="M274.664 345.161H295.916C296.398 345.161 296.859 345.353 297.2 345.693C297.541 346.034 297.732 346.496 297.732 346.978V362.144H272.848V346.978C272.848 346.496 273.039 346.034 273.38 345.693C273.72 345.353 274.182 345.161 274.664 345.161Z" fill="#03D196" stroke="#263238" stroke-width="0.966" stroke-linecap="round" stroke-linejoin="round"/>
<path opacity="0.3" d="M259.638 346.765H253.523V358.995H259.638V346.765Z" fill="white" fill-opacity="0.7"/>
<path opacity="0.3" d="M295.943 346.765H289.828V358.995H295.943V346.765Z" fill="white" fill-opacity="0.7"/>
<path d="M308.563 358.608V428.344H196.207V358.608C196.207 357.443 196.67 356.325 197.494 355.5C198.319 354.676 199.437 354.213 200.602 354.213H304.167C305.333 354.213 306.451 354.676 307.275 355.5C308.099 356.325 308.563 357.443 308.563 358.608Z" fill="#03D196"/>
<mask id="mask12_1_55" style="mask-type:luminance" maskUnits="userSpaceOnUse" x="196" y="354" width="113" height="75">
<path d="M308.559 358.608V428.344H196.203V358.608C196.203 357.443 196.666 356.325 197.491 355.5C198.315 354.676 199.433 354.213 200.599 354.213H304.163C305.329 354.213 306.447 354.676 307.271 355.5C308.096 356.325 308.559 357.443 308.559 358.608Z" fill="white"/>
</mask>
<g mask="url(#mask12_1_55)">
<path opacity="0.3" d="M308.559 358.608V428.344H196.203V358.608C196.203 357.443 196.666 356.325 197.491 355.5C198.315 354.676 199.433 354.213 200.599 354.213H304.163C305.329 354.213 306.447 354.676 307.271 355.5C308.096 356.325 308.559 357.443 308.559 358.608Z" fill="black" fill-opacity="0.7"/>
</g>
<path d="M308.563 358.608V428.344H196.207V358.608C196.207 357.443 196.67 356.325 197.494 355.5C198.319 354.676 199.437 354.213 200.602 354.213H304.167C305.333 354.213 306.451 354.676 307.275 355.5C308.099 356.325 308.563 357.443 308.563 358.608Z" stroke="#263238" stroke-width="0.966" stroke-linecap="round" stroke-linejoin="round"/>
<path d="M308.559 358.608V428.344H225.184V358.608C225.184 357.443 225.647 356.325 226.471 355.5C227.295 354.676 228.413 354.213 229.579 354.213H304.164C305.329 354.213 306.447 354.676 307.272 355.5C308.096 356.325 308.559 357.443 308.559 358.608Z" fill="#03D196" stroke="#263238" stroke-width="0.966" stroke-linecap="round" stroke-linejoin="round"/>
<path opacity="0.3" d="M302.92 361.091H231.649C231.167 361.091 230.705 360.899 230.364 360.559C230.024 360.218 229.832 359.756 229.832 359.275C229.827 359.033 229.87 358.793 229.959 358.568C230.048 358.343 230.181 358.138 230.351 357.965C230.52 357.793 230.722 357.655 230.945 357.562C231.167 357.468 231.407 357.42 231.649 357.42H302.92C303.402 357.42 303.864 357.611 304.204 357.952C304.545 358.292 304.736 358.754 304.736 359.236C304.741 359.478 304.698 359.718 304.609 359.943C304.52 360.168 304.387 360.372 304.218 360.545C304.049 360.718 303.847 360.855 303.624 360.949C303.401 361.043 303.162 361.091 302.92 361.091Z" fill="white" fill-opacity="0.7"/>
<path d="M170.982 428.344C165.186 428.344 157.043 424.615 147.663 420.674C137.935 416.578 126.855 412.25 115.611 411.603C111.418 411.361 113.959 428.344 113.959 428.344H104.782C104.782 428.344 95.7209 416.249 94.668 405.421C94.668 405.421 102.068 400.851 103.845 400.591C104.458 400.527 105.074 400.497 105.69 400.504C107.68 400.504 110.336 400.591 110.336 400.591C109.911 400.339 103.14 396.263 99.4014 392.119C96.3198 388.699 94.9095 383.299 94.8032 380.073C94.9226 377.936 95.1581 375.808 95.5084 373.697L143.731 374.499C143.731 374.499 144.253 374.866 145.18 375.552C150.773 379.628 171.214 394.814 181.434 406.261C184.738 409.961 186.969 413.264 187.298 415.679C188.834 426.817 179.724 428.344 170.982 428.344Z" fill="#757575" stroke="#263238" stroke-width="0.966" stroke-linecap="round" stroke-linejoin="round"/>
<path d="M181.444 406.242L157.989 411.603C153.968 413.903 150.45 416.988 147.643 420.674C137.916 416.578 126.836 412.25 115.592 411.603C111.399 411.361 113.94 428.344 113.94 428.344H104.763C104.763 428.344 95.7209 416.249 94.668 405.421C94.668 405.421 103.207 417.592 105.294 423.775C105.294 423.775 108.607 412.337 113.988 407.749C111.558 405.011 108.796 402.587 105.767 400.533C107.757 400.533 110.414 400.62 110.414 400.62C109.989 400.368 103.217 396.292 99.4787 392.148C96.3971 388.728 95.151 383.318 94.8805 380.102C94.7452 378.517 94.9384 373.726 94.9384 373.726C94.9384 373.726 130.903 378.856 145.257 375.581C150.783 379.638 171.223 394.795 181.444 406.242Z" fill="#263238"/>
<path d="M143.742 405.421C143.742 405.421 162.85 414.994 167.95 418.742C173.051 422.49 174.567 421.475 174.567 421.475" stroke="#263238" stroke-width="0.966" stroke-linecap="round" stroke-linejoin="round"/>
<path d="M99.4141 404.406C99.4141 404.406 104.003 411.41 104.244 413.506" stroke="#263238" stroke-width="0.966" stroke-linecap="round" stroke-linejoin="round"/>
<path d="M176.264 269.978C176.264 269.978 186.436 265.553 185.47 284.371C184.504 303.189 187.953 304.155 187.953 304.155C187.953 304.155 162.354 314.665 155.853 305.681C149.352 296.697 155.524 272.113 176.264 269.978Z" fill="#263238"/>
<path d="M174.847 304.155C174.847 304.155 164.317 309.12 163.361 313.708C162.405 318.297 149.219 311.39 149.219 311.39L158.772 297.654L174.847 304.155Z" fill="white" stroke="#263238" stroke-width="0.966" stroke-linecap="round" stroke-linejoin="round"/>
<path d="M105.806 354.522C81.6562 385.279 101.256 400.117 128.633 397.664L123.146 406.358L136.921 408.744C136.921 408.744 147.479 401.846 161.873 394.476C186.371 381.918 196.272 382.671 193.751 370.104C191.23 357.536 161.206 349.383 131.106 362.627C131.077 362.617 114.732 343.2 105.806 354.522Z" fill="#757575" stroke="#263238" stroke-width="0.966" stroke-linecap="round" stroke-linejoin="round"/>
<path d="M114.23 421.475C114.23 421.475 120.519 404.087 123.146 403.121C125.774 402.155 135.704 405.923 136.921 408.724C136.921 408.724 140.273 403.585 141.645 405.768C143.017 407.951 141.037 411.564 141.645 414.327C142.254 417.09 149.045 420.954 151.759 421.466C154.474 421.978 156.019 423.504 156.019 425.03V428.344H114.23C113.766 427.258 113.527 426.09 113.527 424.91C113.527 423.729 113.766 422.561 114.23 421.475Z" fill="white" stroke="#263238" stroke-width="0.966" stroke-linecap="round" stroke-linejoin="round"/>
<path d="M141.647 411.603C141.647 411.603 136.112 414.337 134.093 413.535C132.074 412.733 135.127 418.123 135.89 418.635C136.653 419.147 141.686 416.848 141.686 416.848" stroke="#263238" stroke-width="0.966" stroke-linecap="round" stroke-linejoin="round"/>
<path d="M119.457 408.734C119.457 408.734 126.973 408.879 129.262 411.632" stroke="#263238" stroke-width="0.966" stroke-linecap="round" stroke-linejoin="round"/>
<path d="M114.23 421.475C114.23 421.475 126.209 424.277 127.223 424.277C128.871 423.95 130.487 423.481 132.053 422.876C132.053 422.876 135.338 424.528 137.521 425.552C139.704 426.576 153.943 425.552 153.943 425.552" stroke="#263238" stroke-width="0.966" stroke-linecap="round" stroke-linejoin="round"/>
<path d="M128.633 397.683C140.07 396.446 162.288 382.352 170.016 377.455C177.744 372.557 179.676 373.842 179.676 373.842" stroke="#263238" stroke-width="0.966" stroke-linecap="round" stroke-linejoin="round"/>
<path d="M94.8711 373.678L96.6968 359.816L101.102 356.493C108.241 339.172 140.582 306.821 149.402 306.927C162.646 307.082 164.983 320.982 166.616 336.197C168.248 351.411 147.615 349.122 147.615 349.122V352.938L135.878 359.014L142.988 358.792C142.988 358.792 122.537 378.672 94.8711 373.678Z" fill="#03D196" stroke="#263238" stroke-width="0.966" stroke-linecap="round" stroke-linejoin="round"/>
<path d="M152.191 280.14C154.963 271.446 167.647 269.128 172.206 270.548C175.949 272.009 179.016 274.808 180.813 278.401C181.972 280.903 179.548 285.327 181.277 287.907C183.75 291.606 183.537 299.412 182.649 304.329C182.166 306.937 171.317 308.482 162.45 302.397C152.925 295.809 149.505 288.506 152.191 280.14Z" fill="white" stroke="#263238" stroke-width="0.966" stroke-linecap="round" stroke-linejoin="round"/>
<path d="M165.014 267.949C165.014 267.949 176.181 266.133 176.258 269.002C176.751 288.061 165.323 292.06 165.323 292.06C165.323 292.06 160.657 288.341 159.614 290.892C158.571 293.442 161.256 300.494 164.56 300.639C163.798 301.821 163.382 303.193 163.358 304.599C163.335 306.005 163.704 307.391 164.425 308.598C164.425 308.598 145.51 311.757 143.945 302.996C144.676 299.95 145.199 296.858 145.51 293.741C146.737 281.463 143.868 273.204 165.014 267.949Z" fill="#263238"/>
<path d="M179.93 287.375C182.258 289.472 183.929 289.472 183.9 290.225C183.813 292.572 181.002 293.741 181.002 293.741" fill="white"/>
<path d="M179.93 287.375C182.258 289.472 183.929 289.472 183.9 290.225C183.813 292.572 181.002 293.741 181.002 293.741" stroke="#263238" stroke-width="0.966" stroke-linecap="round" stroke-linejoin="round"/>
<path d="M180.938 297.654C179.293 298.21 177.518 298.254 175.847 297.779" stroke="#263238" stroke-width="0.966" stroke-linecap="round" stroke-linejoin="round"/>
<path d="M174.75 275.677C174.75 275.677 182.178 273.523 180.816 285.579C180.816 285.579 183.907 281.376 183.898 276.653C183.898 268.471 172.953 270.113 172.953 270.113L174.383 275.909" fill="#263238"/>
<path d="M181.502 281.579C181.221 281.392 180.905 281.264 180.573 281.203C180.241 281.142 179.9 281.148 179.57 281.222" stroke="#263238" stroke-width="0.966" stroke-linecap="round" stroke-linejoin="round"/>
<path d="M176.496 281.444C176.496 281.444 172.506 281.676 170.777 284.342" stroke="#263238" stroke-width="0.966" stroke-linecap="round" stroke-linejoin="round"/>
<path d="M175.539 287.791C175.597 288.428 175.327 288.979 174.93 289.018C174.534 289.056 174.167 288.564 174.1 287.926C174.032 287.288 174.312 286.738 174.708 286.699C175.104 286.661 175.481 287.153 175.539 287.791Z" fill="#263238"/>
<path d="M129.266 400.581C129.266 400.581 138.153 401.547 140.085 405.411" stroke="#263238" stroke-width="0.966" stroke-linecap="round" stroke-linejoin="round"/>
<path d="M151.762 313.448C155.486 311.382 159.864 310.835 163.982 311.921C171.053 313.708 189.388 339.935 191.938 342.495C194.488 345.055 199.26 346.359 203.655 350.986C210.611 358.241 220.725 364.655 221.749 364.655C222.773 364.655 223.594 364.018 224.869 363.767C226.144 363.515 236.016 362.617 236.016 362.617C236.016 362.617 239.33 363.361 236.016 364.771C232.703 366.182 232.954 367.466 232.954 367.466C232.954 367.466 232.297 368.529 233.621 369.553C234.944 370.577 235.736 370.017 237.639 372.712C239.542 375.407 234.954 373.881 234.954 373.881C234.954 373.881 235.968 376.779 233.93 376.489C231.892 376.199 233.679 379.319 230.365 378.894C227.052 378.469 219.962 373.997 218.184 369.311C218.184 369.311 189.262 355.488 184.934 351.923C180.607 348.359 162.407 329.242 161.122 328.991" fill="white"/>
<path d="M151.762 313.448C155.486 311.382 159.864 310.835 163.982 311.921C171.053 313.708 189.388 339.935 191.938 342.495C194.488 345.055 199.26 346.359 203.655 350.986C210.611 358.241 220.725 364.655 221.749 364.655C222.773 364.655 223.594 364.018 224.869 363.767C226.144 363.515 236.016 362.617 236.016 362.617C236.016 362.617 239.33 363.361 236.016 364.771C232.703 366.182 232.954 367.466 232.954 367.466C232.954 367.466 232.297 368.529 233.621 369.553C234.944 370.577 235.736 370.017 237.639 372.712C239.542 375.407 234.954 373.881 234.954 373.881C234.954 373.881 235.968 376.779 233.93 376.489C231.892 376.199 233.679 379.319 230.365 378.894C227.052 378.469 219.962 373.997 218.184 369.311C218.184 369.311 189.262 355.488 184.934 351.923C180.607 348.359 162.407 329.242 161.122 328.991" stroke="#263238" stroke-width="0.966" stroke-linecap="round" stroke-linejoin="round"/>
<path d="M147.605 310.646C147.605 310.646 161.864 306.831 166.839 309.632C171.813 312.433 181.242 325.426 181.242 325.426C181.242 325.426 169.746 335.714 166.191 334.777C162.636 333.84 151.759 332.304 151.759 332.304" fill="#03D196"/>
<path d="M147.605 310.646C147.605 310.646 161.864 306.831 166.839 309.632C171.813 312.433 181.242 325.426 181.242 325.426C181.242 325.426 169.746 335.714 166.191 334.777C162.636 333.84 151.759 332.304 151.759 332.304" stroke="#263238" stroke-width="0.966" stroke-linecap="round" stroke-linejoin="round"/>
<path d="M159.97 333.56C159.97 333.56 154.802 336.4 152.899 336.4" stroke="#263238" stroke-width="0.966" stroke-linecap="round" stroke-linejoin="round"/>
<path d="M151.762 319.311C152.197 320.074 152.052 328.43 161.122 331.029" stroke="#263238" stroke-width="0.966" stroke-linecap="round" stroke-linejoin="round"/>
<path d="M103.273 356.763C103.273 356.763 122.593 360.077 129.259 354.213" stroke="#263238" stroke-width="0.966" stroke-linecap="round" stroke-linejoin="round"/>
<path d="M135.865 359.014C135.865 359.014 131.035 358.164 129.258 360.646C127.48 363.129 117.801 365.476 117.801 365.476" stroke="#263238" stroke-width="0.966" stroke-linecap="round" stroke-linejoin="round"/>
<path d="M97.0383 377.455C97.0383 377.455 94.2465 389.491 106.157 394.843" stroke="#263238" stroke-width="0.966" stroke-linecap="round" stroke-linejoin="round"/>
<path d="M103.273 378.286C103.273 378.286 103.341 384.217 105.205 387.463L111.127 389.395L117.754 385.704C117.754 385.704 116.343 378.121 116.218 376.585" stroke="#263238" stroke-width="0.966" stroke-linecap="round" stroke-linejoin="round"/>
</svg>
