<svg width="290" height="299" viewBox="0 0 290 299" fill="none" xmlns="http://www.w3.org/2000/svg">
<path d="M268.621 81.604C267.716 60.5414 255.066 36.4928 235.775 27.0879C209.6 14.3275 180.675 31.5042 153.943 22.6477C132.75 15.6208 106.36 4.76768 83.5253 10.6323C66.1253 15.1083 55.6853 30.1215 50.9873 47.1433C48.6093 55.7853 47.5537 64.7908 47.2521 73.7428C46.9853 81.7947 48.7311 90.1864 46.0921 97.9881C40.7213 113.77 27.4393 125.178 19.9921 139.851C12.0171 155.597 6.87251 174.872 15.6015 191.471C28.0541 215.156 62.0653 219.232 68.5149 247.31C78.2183 289.721 122.269 302.452 160.085 291.348C176.685 286.473 190.454 276.573 200.964 262.579C208.597 252.412 217.088 241.082 229.54 236.439C237.08 233.638 245.16 232.267 252.427 228.727C278.046 216.252 286.67 180.492 281.885 153.672C279.681 141.335 274.392 129.868 270.894 117.912C267.443 106.129 269.125 93.7028 268.621 81.604Z" fill="#03D196"/>
<path opacity="0.7" d="M268.621 81.604C267.716 60.5414 255.066 36.4928 235.775 27.0879C209.6 14.3275 180.675 31.5042 153.943 22.6477C132.75 15.6208 106.36 4.76768 83.5253 10.6323C66.1253 15.1083 55.6853 30.1215 50.9873 47.1433C48.6093 55.7853 47.5537 64.7908 47.2521 73.7428C46.9853 81.7947 48.7311 90.1864 46.0921 97.9881C40.7213 113.77 27.4393 125.178 19.9921 139.851C12.0171 155.597 6.87251 174.872 15.6015 191.471C28.0541 215.156 62.0653 219.232 68.5149 247.31C78.2183 289.721 122.269 302.452 160.085 291.348C176.685 286.473 190.454 276.573 200.964 262.579C208.597 252.412 217.088 241.082 229.54 236.439C237.08 233.638 245.16 232.267 252.427 228.727C278.046 216.252 286.67 180.492 281.885 153.672C279.681 141.335 274.392 129.868 270.894 117.912C267.443 106.129 269.125 93.7028 268.621 81.604Z" fill="white"/>
<path opacity="0.3" d="M281.883 153.672C279.679 141.335 274.39 129.868 270.892 117.912C270.091 115.12 269.526 112.263 269.205 109.371C259.211 108.656 241.365 107.583 224.121 107.583C198.259 107.583 175.227 110.968 145.607 112.899C115.986 114.83 72.7353 111.451 45.9393 110.486C43.8455 110.408 41.8793 110.349 40.0523 110.295C33.7651 120.355 25.3493 129.236 19.9843 139.851C12.0093 155.597 6.86469 174.871 15.5937 191.47C28.0521 215.155 62.0633 219.232 68.5129 247.309C78.2163 289.721 122.267 302.451 160.083 291.348C176.683 286.472 190.452 276.573 200.962 262.579C208.595 252.411 217.086 241.081 229.538 236.438C237.078 233.637 245.158 232.266 252.425 228.726C278.044 216.252 286.668 180.492 281.883 153.672Z" fill="#0B7255"/>
<path d="M163.926 69.1884C159.066 66.4706 156.862 68.7354 155.093 66.4706C153.324 64.2058 159.953 58.3054 146.706 52.405C146.706 52.405 145.824 39.7042 127.728 39.2513C109.632 38.7983 114.481 51.9521 109.621 55.1287C104.76 58.3054 103.444 53.3407 98.6008 56.4876C93.7578 59.6345 95.956 66.0236 91.983 66.9236C88.01 67.8235 82.703 62.841 77.8542 66.0117C73.0054 69.1824 72.9996 71.9121 70.7898 71.9121C68.58 71.9121 64.172 70.1241 61.5098 71.9121C58.8476 73.7001 55.7736 75.9947 55.7736 75.9947H167.458C167.458 75.9947 168.781 71.9121 163.926 69.1884Z" stroke="#263238" stroke-width="0.712" stroke-linecap="round" stroke-linejoin="round"/>
<path d="M97.8548 67.3291C97.2198 67.6936 96.5609 68.0123 95.8828 68.2827" stroke="#263238" stroke-width="0.712" stroke-linecap="round" stroke-linejoin="round"/>
<path d="M121.739 46.1353C120.644 46.6392 119.681 47.4044 118.932 48.3674C118.182 49.3305 117.667 50.4634 117.429 51.6721C116.617 55.8441 114.732 58.5917 112.581 58.8718C110.429 59.1519 102.344 58.3175 100.981 61.3631C100.624 62.2554 100.371 63.1875 100.227 64.1404" stroke="#263238" stroke-width="0.712" stroke-linecap="round" stroke-linejoin="round"/>
<path d="M53.0814 74.1773C51.6546 73.3787 51.0108 74.0462 50.4888 73.3787C49.9668 72.7112 51.9156 70.9947 48.0296 69.2544C48.0296 69.2544 47.7686 65.5294 42.4616 65.3923C37.1546 65.2552 38.5698 69.1232 37.1488 70.053C35.7278 70.9828 35.3334 69.5226 33.9066 70.4523C32.4798 71.3821 33.1294 73.2476 31.9636 73.5158C30.7978 73.784 29.2434 72.3238 27.8224 73.2476C26.4014 74.1714 26.3956 74.9998 25.746 74.9998C25.0964 74.9998 23.803 74.4634 23.0258 74.9998C22.2486 75.5362 21.3438 76.1918 21.3438 76.1918H54.1196C54.1196 76.1918 54.5198 74.9998 53.0814 74.1773Z" stroke="#263238" stroke-width="0.712" stroke-linecap="round" stroke-linejoin="round"/>
<path d="M33.6894 73.6345C33.5027 73.7419 33.3089 73.8355 33.1094 73.9146" stroke="#263238" stroke-width="0.712" stroke-linecap="round" stroke-linejoin="round"/>
<path d="M40.7088 67.4124C40.3879 67.5615 40.1059 67.7867 39.8861 68.0696C39.6663 68.3524 39.515 68.6848 39.4444 69.0394C39.2066 70.2314 38.6556 71.0718 38.0234 71.1493C37.3912 71.2268 35.019 70.9884 34.6246 71.8824C34.519 72.1447 34.4431 72.4187 34.3984 72.6989" stroke="#263238" stroke-width="0.712" stroke-linecap="round" stroke-linejoin="round"/>
<path d="M258.221 33.5003C254.573 31.456 252.92 33.1606 251.592 31.456C250.264 29.7515 255.24 25.3232 245.293 20.8949C245.293 20.8949 244.632 11.3589 231.037 11.0132C217.441 10.6676 221.09 20.5492 217.441 22.9332C213.793 25.3172 212.801 21.5684 209.153 23.9524C205.505 26.3364 207.164 31.1044 204.177 31.7898C201.19 32.4752 197.217 28.7264 193.569 31.1104C189.92 33.4944 189.92 35.5386 188.262 35.5386C186.603 35.5386 183.291 34.1738 181.302 35.5386C179.312 36.9035 176.992 38.6438 176.992 38.6438H260.878C260.878 38.6438 261.869 35.5446 258.221 33.5003Z" stroke="#263238" stroke-width="0.712" stroke-linecap="round" stroke-linejoin="round"/>
<path d="M208.602 32.0879C208.123 32.3623 207.627 32.6033 207.117 32.8091" stroke="#263238" stroke-width="0.712" stroke-linecap="round" stroke-linejoin="round"/>
<path d="M226.547 16.1868C225.722 16.5657 224.997 17.1421 224.433 17.868C223.869 18.5938 223.482 19.4479 223.305 20.3588C222.725 23.4758 221.287 25.5559 219.663 25.7645C218.039 25.9731 211.978 25.3473 210.963 27.6359C210.688 28.3047 210.494 29.0051 210.383 29.7219" stroke="#263238" stroke-width="0.712" stroke-linecap="round" stroke-linejoin="round"/>
<path d="M268.896 53.2873C267.469 52.4887 266.819 53.1502 266.303 52.4887C265.787 51.8271 267.73 50.1047 263.844 48.3584C263.844 48.3584 263.583 44.6334 258.27 44.5023C252.957 44.3712 254.384 48.2273 252.957 49.157C251.531 50.0868 251.148 48.6266 249.721 49.5564C248.294 50.4861 248.944 52.3516 247.778 52.6198C246.612 52.888 245.058 51.4278 243.631 52.3516C242.204 53.2754 242.21 54.086 241.56 54.086C240.911 54.086 239.617 53.5496 238.84 54.086C238.063 54.6224 237.152 55.278 237.152 55.278H269.928C269.928 55.278 270.317 54.086 268.896 53.2873Z" stroke="#263238" stroke-width="0.712" stroke-linecap="round" stroke-linejoin="round"/>
<path d="M249.506 52.739C249.319 52.846 249.125 52.9396 248.926 53.0191" stroke="#263238" stroke-width="0.712" stroke-linecap="round" stroke-linejoin="round"/>
<path d="M256.521 46.5227C256.2 46.6692 255.917 46.8929 255.697 47.175C255.477 47.4571 255.326 47.7894 255.257 48.1438C255.019 49.3358 254.462 50.1762 253.83 50.2596C253.198 50.3431 250.826 50.0927 250.431 50.9867C250.327 51.2492 250.253 51.5232 250.211 51.8033" stroke="#263238" stroke-width="0.712" stroke-linecap="round" stroke-linejoin="round"/>
<path d="M86.5215 101.105L92.3563 91.2893L99.7687 89.6503L105.603 80.9249L113.567 77.1105L116.217 68.9334L120.463 60.7503L127.893 57.4783L133.728 44.3961L141.691 36.213L149.115 33.4893L154.422 38.9427L158.291 39.7175L160.263 44.3961L165.57 47.6681L167.159 52.5732C167.61 52.7249 168.006 53.0121 168.297 53.3978C168.588 53.7835 168.759 54.2499 168.789 54.7367C168.789 56.3757 172.506 60.1901 172.506 60.1901L177.28 64.5528L189.46 86.9087L195.295 90.1808L195.822 94.5435L200.068 99.9969L205.381 105.993L220.24 121.262L222.891 155.61L221.83 171.428L221.302 182.877L216.523 188.33L209.626 210.138L208.565 218.863L202.73 222.678L192.116 232.494L187.349 246.142C187.349 246.142 181.508 252.144 179.919 252.698C178.33 253.252 167.71 256.518 167.71 256.518L160.814 260.333C160.814 260.333 153.917 269.058 152.322 269.601C150.727 270.143 145.426 278.874 143.303 279.965C141.181 281.056 135.346 282.146 135.346 282.146L130.039 272.33L121.548 271.782L108.283 238.525L99.7687 235.241L88.6269 194.344V169.806L82.2469 167.083L81.2087 152.355L75.9017 139.84L74.3125 123.485L86.5215 101.105Z" fill="#03D196"/>
<path d="M103.17 93.9888L107.149 89.3221L104.249 96.8258L107.149 100.73L109.191 96.5218L109.028 93.0054L111.348 91.4141L108.251 83.9939L105.102 83.6184L99.7656 89.6499L102.323 93.1484C102.625 93.4107 102.915 93.7027 103.17 93.9888Z" fill="white"/>
<path d="M94.8297 99.9015C95.8621 99.6333 95.0907 95.9262 95.0907 95.9262L93.7973 93.2621L92.5387 92.9224L81.4375 112.137L92.8287 112.435L91.2221 103.084C91.2221 103.084 93.7973 100.164 94.8297 99.9015Z" fill="white"/>
<path d="M107.149 105.23L104.522 107.929H101.888L105.687 102.828L103.35 100.128L101.598 103.126L97.6776 103.877L95.7578 112.733H103.646L105.102 110.331L109.486 106.732L109.191 99.8298L107.149 105.23Z" fill="white"/>
<path d="M148.634 86.3186L138.994 82.4148L134.609 87.2186L135.885 87.743L138.026 88.0232L140.16 86.3186L142.497 86.9206L141.529 88.488L143.478 88.7503L146.006 87.5166L146.813 90.8422L147.77 91.4621L148.634 90.2224L150.38 93.1547L155.472 96.4566L149.214 86.4497L148.634 86.3186Z" fill="white"/>
<path d="M160.016 74.9109L161.187 71.0071L155.051 75.2089L160.016 74.9109Z" fill="white"/>
<path d="M129.351 87.2184C129.351 87.2184 131.978 84.2384 133.15 83.6424C134.322 83.0464 131.688 80.9366 131.688 80.9366L129.055 76.1328L129.937 73.7488L129.409 69.1835C129.409 69.1835 127.86 64.9399 127.089 64.6717C126.623 64.5465 126.151 64.451 125.674 64.3857L123.737 64.1413L121.672 61.4951L117.664 69.2431L113.285 81.8485L113.964 85.0847C114.081 85.4295 114.157 85.7878 114.19 86.1516L115.35 93.2559L117.977 95.6399V102.244L120.877 98.6676L124.937 99.8596L131.19 90.3891L135.574 87.7429L129.351 87.2184Z" fill="white"/>
<path d="M146.582 84.8163L152.718 78.8146L155.346 74.0108L159.145 71.007L159.081 62.7822L154.951 58.2764L152.631 53.5025V50.1828L149.795 46.6902L149.018 45.2836V50.8503L148.107 60.9763L147.754 67.1032L148.044 74.0108L146.582 84.8163Z" fill="white"/>
<path d="M185.399 101.755L183.334 99.1028L183.595 93.8043L179.309 92.0223L179.889 97.428L172.001 101.928L168.207 104.628L167.622 106.434L180.474 101.63L177.847 104.33L171.421 106.434L166.45 107.93L165.789 109.443L174.634 108.531L180.474 104.628L185.399 101.755Z" fill="white"/>
<path d="M154.548 104.729C152.982 106.107 151.494 107.578 150.094 109.133C149.218 110.325 144.253 108.537 144.253 108.537L148.922 102.834L144.253 103.43L146.196 100.515L140.367 94.8295L136.093 96.8261L137.949 92.4753L131.244 90.3535L127.027 98.328L129.423 100.164L131.488 98.5724L133.291 99.9014L137.421 103.877L136.389 106.529L139.486 112.894L148.354 112.733L160.621 108.835L158.052 106.189L154.548 104.729Z" fill="white"/>
<path d="M136.062 62.3052C136.062 62.3052 135.772 68.307 135.482 70.1069C135.192 71.9068 131.973 74.9106 131.973 74.9106L133.713 80.0124L134.293 76.1086L138.092 71.9366L140.134 64.433V75.8404L139.844 80.9422L144.246 84.536C144.246 84.536 143.666 80.6322 143.365 78.5284C143.063 76.4245 143.945 71.0247 143.945 71.0247L147.744 73.1286V67.103C147.744 67.103 147.674 67.0196 147.57 66.8646L147.459 68.0864L146.16 64.5939C145.801 63.9474 145.54 63.2478 145.389 62.5198C145.389 62.5198 144.617 58.0081 144.617 56.9472C144.621 56.6305 144.656 56.3149 144.722 56.0055C144.895 54.5709 145.219 53.16 145.69 51.7978C146.566 49.4138 145.69 47.894 145.69 47.894L143.37 42.7922L140.157 41.6002L138.997 40.4082L134.937 44.908L130.5 55.9996L126.504 60.1L127.554 59.808L132.849 55.6837L129.027 60.398L131.985 64.0873L131.625 64.7906L132.559 65.8872L129.92 73.7127L132.24 69.5049L136.062 62.3052Z" fill="white"/>
<path d="M151.085 39.7172L147.471 36.2604L149.13 33.4771L154.437 38.9305L151.085 39.7172ZM195.826 94.5492L195.298 90.1864L189.463 86.9204L177.283 64.5644L172.51 60.2017C172.51 60.2017 168.786 56.3932 168.786 54.7364C168.795 54.6094 168.795 54.4819 168.786 54.3549V54.2775C168.765 54.1655 168.734 54.0558 168.693 53.9496C168.554 53.6296 168.354 53.3413 168.105 53.1018C167.856 52.8623 167.563 52.6764 167.243 52.555L165.654 47.6499L160.347 44.3779L158.375 39.6993L157.604 42.0833L158.636 46.3268L155.284 47.9181L152.703 48.7108V53.4788L155.023 58.2468L159.152 62.7526L159.669 69.1178L164.57 63.8134L166.426 59.856L169.215 60.899L173.084 61.1612L175.665 64.3439L171.28 68.5874L164.57 69.1178L162.25 73.8858L166.373 82.9033L161.148 84.5364L152.372 80.8233L148.486 85.3171L155.446 96.4564L143.579 88.768L135.581 87.7071L131.196 90.3533L137.901 92.4751L147.448 101.755L165.764 109.443L168.862 102.291L176.088 98.5781L176.605 91.1579L178.408 86.9144L184.087 92.2188L187.439 97.5172L197.502 101.499L194.921 96.1941L195.826 94.5492ZM127.09 64.6359C127.861 64.9041 129.41 69.1476 129.41 69.1476L131.991 64.1055L128.378 59.5997L121.673 61.4592L123.738 64.1055C124.865 64.2119 125.984 64.389 127.09 64.6359ZM144.635 56.9475C144.635 58.0084 145.406 62.5201 145.406 62.5201L147.471 68.0868L149.02 50.8505V45.2838L152.372 42.1012L150.307 41.0284L147.732 39.1748L144.89 44.4792L146.166 48.9969C146.166 48.9969 146.166 52.1795 145.65 53.2404C145.076 54.395 144.731 55.655 144.635 56.9475ZM188.756 100.456L183.594 93.828L183.333 99.1264L185.397 101.779C185.397 101.779 182.816 103.9 182.045 104.163C181.274 104.425 177.405 107.077 177.405 107.077L175.34 110.26L187.729 109.461L196.238 108.376L192.879 104.139L188.756 100.456ZM198.297 98.0715L199.59 101.522H197.525L201.394 108.376L207.072 107.584L198.297 98.0715ZM114.197 86.1515C114.197 85.0906 112.387 81.1094 112.648 80.3167C112.909 79.524 113.588 77.146 113.588 77.146L106.454 81.6398L108.257 84.0238L111.366 91.4142L109.046 93.0055L110.334 98.0417L114.208 92.4751L114.197 86.1515ZM101.292 92.2486L99.7894 89.6858L93.5544 92.779L95.103 95.9617C95.103 95.9617 95.8744 99.6688 94.842 99.937C93.8096 100.205 91.2344 103.12 91.2344 103.12L92.522 110.009L96.1354 110.278C96.1354 110.278 97.423 104.711 97.684 103.912C97.945 103.114 101.036 102.589 101.553 100.998C102.069 99.4066 103.873 95.9617 103.873 95.163C103.873 94.3644 101.286 92.2128 101.286 92.2128L101.292 92.2486ZM137.414 103.912L133.284 99.937L131.481 98.6079L129.416 100.199C129.416 100.199 128.94 100.545 128.291 100.998L128.644 101.791C128.644 101.791 125.286 107.321 125.025 108.376C124.764 109.431 122.705 105.724 122.705 105.724L123.395 101.934C122.952 101.468 122.548 100.963 122.189 100.426H119.608L112.897 110.498L111.865 113.144C117.798 113.937 139.473 112.882 139.473 112.882L136.376 106.517L137.414 103.912Z" fill="#263238"/>
<path opacity="0.3" d="M219.484 124.063L212.983 132.711C212.983 132.711 203.801 135.065 202.653 135.065C201.504 135.065 191.18 137.032 191.18 137.032L189.667 144.893L186.61 151.968L188.93 157.469C188.93 157.469 181.28 151.575 178.6 150.788C175.921 150.001 163.688 144.893 163.688 144.893L158.335 132.711L152.216 124.063L146.097 117.775L138.83 116.989L127.74 117.382L125.02 120.893L121.227 142.533L122.387 151.181L123.918 156.682L125.832 144.893C125.832 144.893 129.271 137.819 130.42 137.032C131.568 136.246 135.39 133.492 135.39 133.492V137.426L130.802 148.034V157.076C130.802 159.823 133.122 168.471 133.122 168.471L135.796 172.792L139.624 175.939L143.829 186.155C143.829 186.155 149.183 192.442 150.714 194.803C152.245 197.163 152.628 198.73 154.536 201.09C156.444 203.45 159.889 207.378 159.889 207.378L161.421 228.989C161.421 228.989 160.655 236.064 161.421 237.244C162.186 238.424 171.687 245.498 172.847 245.498C174.007 245.498 180.114 247.459 180.114 247.459L183.176 246.672L184.336 244.712L185.102 230.956L187.016 240.385L189.69 237.244L190.85 223.095L192.764 228.202L197.734 225.848L201.939 221.128L202.705 214.84L202.322 208.165L205.385 205.411L208.058 199.124V187.335L214.177 185.368L219.919 181.834L219.154 160.61L218.771 152.355L220.296 150.001L219.136 129.958L219.484 124.063Z" fill="black"/>
<path opacity="0.3" d="M158.293 138.213L159.053 145.287L164.412 149.608C164.412 149.608 167.086 152.749 168.617 152.749C169.797 152.675 170.957 152.411 172.057 151.968L175.502 158.25L177.41 160.634C177.41 160.634 181.238 170.069 182.769 169.675L187.357 168.483H189.677L195.419 174.378L193.888 183.026L195.796 199.118L200.773 181.041L203.829 183.425L202.669 199.517L201.509 203.838C201.509 203.838 199.978 207.772 199.978 209.339V220.741L195.007 226.242L190.826 223.095L189.666 219.954L187.757 224.275C187.757 224.275 188.523 226.659 188.14 228.203C187.757 229.746 185.078 230.956 185.078 230.956L185.843 225.455L182.787 226.242V238.031L176.285 238.424L172.457 233.316L174.371 228.596L171.686 223.488L170.16 225.872V232.16L167.84 232.553L167.457 225.479L165.926 221.939C165.926 221.939 164.401 213.297 164.401 211.723C164.401 210.15 163.241 205.042 163.241 205.042L158.653 201.114C158.653 201.114 154.825 198.73 155.591 194.04C156.356 189.349 155.973 188.145 156.356 186.572C156.739 184.999 154.442 186.572 154.442 186.572L152.911 194.04L151.751 190.893C151.751 190.893 149.071 189.325 149.071 188.145C149.071 186.965 146.751 186.179 146.751 184.999V175.546C146.751 175.546 141.781 172.792 141.015 171.612C140.25 170.432 135.662 169.228 135.662 168.078C135.662 166.928 137.193 161.79 137.193 161.79C137.193 161.79 139.513 160.217 139.513 158.643C139.513 157.07 138.353 142.927 138.353 142.927L140.267 136.639V130.351C140.267 130.351 136.822 127.967 135.673 127.967C134.525 127.967 128.406 129.934 128.406 129.934L129.224 123.277L134.577 121.31L142.227 119.349L151.792 125.661V129.982L153.706 137.426L156.026 132.711L157.557 135.066L158.293 138.213Z" fill="black"/>
<path opacity="0.3" d="M126.933 169.258L129.606 177.9L134.96 181.834C134.96 181.834 138.788 186.548 138.788 188.121C138.788 189.695 139.553 194.016 140.696 194.803C141.839 195.589 146.815 200.697 147.963 201.484C149.112 202.271 151.026 203.445 151.026 205.018C151.026 206.592 152.545 213.273 152.545 213.273L150.225 220.741C150.225 220.741 134.165 217.987 134.165 216.02C134.165 214.053 133.782 203.051 133.782 203.051L132.251 210.519C132.251 210.519 128.806 211.711 128.046 210.519C127.286 209.327 123.07 206.198 123.07 205.018C123.07 203.838 121.544 202.634 122.304 201.09C123.064 199.547 123.07 188.908 123.07 188.908L121.162 187.716C121.162 187.716 120.002 191.25 118.842 191.25C117.682 191.25 112.723 181.428 112.723 181.428C112.723 181.428 116.545 179.462 117.31 177.888C118.076 176.315 119.63 171.207 119.63 171.207L118.905 164.544L113.935 157.469L115.849 153.929L121.968 162.577L126.938 164.15L126.933 169.258Z" fill="black"/>
<path opacity="0.3" d="M107.423 138.999V156.682C107.423 157.874 106.658 161.397 106.658 162.97C106.658 164.543 108.978 168.471 108.978 168.471C108.978 168.471 108.595 172.792 108.212 173.972C107.829 175.152 108.595 178.687 108.978 180.26C109.36 181.833 111.298 186.548 111.298 186.548L105.561 184.164L99.4423 187.311L95.6201 177.876L91.4151 173.948V167.684L87.2043 166.111L84.5305 151.968L83.7649 162.97L83.3821 149.608L86.8215 140.173L85.6615 134.672L82.5643 120.892L80.6503 133.861L82.5643 144.87L76.4453 135.459V124.063L82.5643 116.202L91.7399 119.349H98.6013L106.658 120.892L112.777 120.112L112.011 126.006C112.011 126.006 108.572 128.754 107.423 129.147C106.275 129.54 104.361 130.339 104.361 130.339L107.423 138.999Z" fill="black"/>
<path opacity="0.3" d="M112.013 192.836L114.333 201.877L118.538 206.198C120.07 207.771 123.509 210.519 123.892 211.699C124.275 212.879 126.212 217.593 126.212 217.593L128.503 221.128C128.503 221.128 132.714 223.512 134.245 223.881C135.776 224.251 138.833 226.265 138.833 226.265L140.741 229.013L149.11 231.748L150.641 239.216C151.97 240.605 153.374 241.917 154.846 243.144C156.006 243.931 161.348 247.858 162.497 247.858C163.645 247.858 168.998 248.645 168.998 248.645L170.53 250.612C170.635 250.87 170.688 251.147 170.687 251.427C170.685 251.707 170.628 251.983 170.52 252.24C170.412 252.497 170.254 252.728 170.056 252.92C169.858 253.113 169.625 253.262 169.37 253.359C167.456 254.146 160.571 256.9 159.423 257.293C158.274 257.686 153.304 261.221 153.304 261.221C153.304 261.221 143.745 255.72 142.214 255.326C140.683 254.933 134.947 252.942 134.564 251.792C134.181 250.642 133.404 239.61 133.404 238.43C133.404 237.249 129.576 231.748 129.576 231.748L121.931 225.854C121.931 225.854 115.43 221.527 115.047 219.96C114.664 218.392 112.367 212.492 111.984 211.312C111.602 210.131 108.545 201.489 108.545 201.489H106.631C106.631 201.489 107.791 211.312 108.162 212.885C108.533 214.458 109.322 219.96 109.693 221.134C110.065 222.308 107.373 227.034 107.373 228.602C107.373 230.169 107.756 235.283 107.756 235.283H105.436L102.38 227.034C102.38 227.034 103.244 218.38 103.244 217.2C103.244 216.02 100.564 206.985 100.564 206.985L98.2442 212.879L95.9532 208.165V194.796L91.7424 185.755L98.6038 192.049L105.488 188.515L112.013 192.836Z" fill="black"/>
<path opacity="0.3" d="M115.457 226.242L124.249 234.884L126.929 239.991V244.318L128.837 250.999L129.22 252.96L133.431 257.681L136.487 259.248L147.577 261.632L147.96 266.74L150.28 265.953L146.835 271.848C146.835 271.848 144.515 278.529 143.395 278.529C142.276 278.529 137.659 280.496 137.659 280.496C137.659 280.496 137.276 275.781 137.659 274.601C138.042 273.421 138.819 269.887 138.819 269.887L137.288 267.133L136.882 268.701L135.351 270.274L135.733 273.415L136.116 274.988L133.06 271.448L130.368 269.893H126.929L127.695 262.425L126.929 258.885L124.249 261.269V265.983L123.867 268.367L120.81 262.079L117.742 257.681L118.125 250.606L117.359 245.105L114.685 244.318L110.092 239.211L109.715 232.529L112.771 225.455L111.24 219.167L115.457 226.242Z" fill="black"/>
<path opacity="0.3" d="M188.121 135.065L173.203 126.423L174.363 132.711C174.363 132.711 178.185 136.246 179.334 137.819C180.482 139.392 183.921 145.287 183.921 145.287L187.367 144.095L188.121 135.065Z" fill="black"/>
<path opacity="0.3" d="M205.715 111.487L204.555 115.808C204.555 115.808 207.994 121.309 209.525 121.309C211.056 121.309 214.879 126.816 215.644 124.456C216.177 122.658 216.565 120.818 216.804 118.955L205.715 111.487Z" fill="black"/>
<path opacity="0.3" d="M111.639 129.958L106.668 133.105L110.873 139.78L114.701 136.639L111.639 129.958Z" fill="black"/>
<path opacity="0.3" d="M112.011 146.854L109.715 148.428L110.48 153.929L113.16 152.749L116.599 150.001L113.16 142.927L112.011 146.854Z" fill="black"/>
<path opacity="0.3" d="M115.459 164.15L108.957 168.471L112.396 175.152L115.459 170.831V164.15Z" fill="black"/>
<path opacity="0.3" d="M155.615 211.699L150.262 220.741L153.701 228.989L156.381 236.064L158.672 234.097V223.095L155.615 211.699Z" fill="black"/>
<path opacity="0.3" d="M165.176 143.713L171.677 134.672L170.152 127.991L159.439 120.135L154.086 117.382V122.883L160.588 132.711L163.267 142.14L163.65 144.893" fill="black"/>
<path d="M86.5215 101.105L92.3563 91.2893L99.7687 89.6503L105.603 80.9249L113.567 77.1105L116.217 68.9334L120.463 60.7503L127.893 57.4783L133.728 44.3961L141.691 36.213L149.115 33.4893L154.422 38.9427L158.291 39.7175L160.263 44.3961L165.57 47.6681L167.159 52.5732C167.61 52.7249 168.006 53.0121 168.297 53.3978C168.588 53.7835 168.759 54.2499 168.789 54.7367C168.789 56.3757 172.506 60.1901 172.506 60.1901L177.28 64.5528L189.46 86.9087L195.295 90.1808L195.822 94.5435L200.068 99.9969L205.381 105.993L220.24 121.262L222.891 155.61L221.83 171.428L221.302 182.877L216.523 188.33L209.626 210.138L208.565 218.863L202.73 222.678L192.116 232.494L187.349 246.142C187.349 246.142 181.508 252.144 179.919 252.698C178.33 253.252 167.71 256.518 167.71 256.518L160.814 260.333C160.814 260.333 153.917 269.058 152.322 269.601C150.727 270.143 145.426 278.874 143.303 279.965C141.181 281.056 135.346 282.146 135.346 282.146L130.039 272.33L121.548 271.782L108.283 238.525L99.7687 235.241L88.6269 194.344V169.806L82.2469 167.083L81.2087 152.356L75.9017 139.84L74.3125 123.485L86.5215 101.105Z" stroke="#263238" stroke-width="0.712" stroke-miterlimit="10"/>
<path d="M13.5039 110.486C14.8669 110.29 16.2415 110.206 17.6161 110.123C18.9907 110.039 20.3653 109.992 21.7399 109.95C24.4949 109.873 27.2441 109.855 29.9991 109.849C35.5033 109.849 41.0191 109.938 46.5117 110.069C57.5317 110.403 68.5111 110.951 79.5021 111.404C90.4931 111.857 101.484 112.328 112.475 112.525C123.466 112.721 134.457 112.698 145.402 112.018C156.346 111.339 167.331 110.367 178.299 109.408C189.267 108.448 200.246 107.495 211.266 107.167C222.286 106.839 233.306 107.083 244.326 107.566C249.833 107.84 255.329 108.178 260.816 108.579C266.303 108.979 271.789 109.437 277.265 110.004C266.279 109.288 255.294 108.716 244.297 108.442C233.301 108.168 222.304 107.989 211.336 108.543C189.389 109.581 167.523 112.37 145.529 113.8C134.509 114.432 123.489 114.396 112.469 114.152C101.449 113.907 90.4583 113.419 79.4673 112.769C68.4763 112.119 57.4969 111.452 46.5117 110.939C41.0133 110.677 35.5207 110.451 30.0223 110.343C27.2731 110.284 24.5239 110.236 21.7747 110.242C20.4001 110.242 19.0255 110.242 17.6509 110.284C16.2763 110.326 14.8727 110.331 13.5039 110.486Z" fill="#263238"/>
<path d="M273.972 116.315C275.359 116.13 276.153 116.011 276.153 116.011" stroke="#263238" stroke-width="0.712" stroke-linecap="round" stroke-linejoin="round"/>
<path d="M260.625 117.776C264.633 117.436 268.287 117.031 271.065 116.691" stroke="#263238" stroke-width="0.712" stroke-linecap="round" stroke-linejoin="round"/>
<path d="M189.086 112.757C214.745 114.384 221.612 118.449 246.547 118.449C249.249 118.449 252.068 118.348 254.846 118.193" stroke="#263238" stroke-width="0.712" stroke-linecap="round" stroke-linejoin="round"/>
<path d="M57.1875 117.657C71.0147 120.041 83.8211 120.446 103.037 118.849C125.813 116.971 158.224 111.953 183.28 112.513" stroke="#263238" stroke-width="0.712" stroke-linecap="round" stroke-linejoin="round"/>
<path d="M18.8319 112.549C27.7119 112.272 36.59 113.162 45.2509 115.195C47.8609 115.791 50.3781 116.357 52.8373 116.84" stroke="#263238" stroke-width="0.712" stroke-linecap="round" stroke-linejoin="round"/>
<path d="M11.6055 113.145C11.6055 113.145 12.7655 112.954 14.8071 112.775" stroke="#263238" stroke-width="0.712" stroke-linecap="round" stroke-linejoin="round"/>
</svg>
