<svg width="290" height="298" viewBox="0 0 290 298" fill="none" xmlns="http://www.w3.org/2000/svg">
<path d="M193.725 24.0566C193.725 24.0566 148.833 8.09498 104.77 33.5106C60.7077 58.9262 38.4589 109.369 19.3653 149.777C0.271688 190.186 11.2453 231.296 44.8853 250.036C78.5253 268.776 101.395 241.151 148.583 239.805C195.772 238.459 208.48 245.205 247.665 218.548C286.85 191.891 293.897 128.932 263.012 82.3524C232.127 35.7726 193.725 24.0566 193.725 24.0566Z" fill="#03D196"/>
<path opacity="0.7" d="M193.725 24.0566C193.725 24.0566 148.833 8.09498 104.77 33.5106C60.7077 58.9262 38.4589 109.369 19.3653 149.777C0.271688 190.186 11.2453 231.296 44.8853 250.036C78.5253 268.776 101.395 241.151 148.583 239.805C195.772 238.459 208.48 245.205 247.665 218.548C286.85 191.891 293.897 128.932 263.012 82.3524C232.127 35.7726 193.725 24.0566 193.725 24.0566Z" fill="white"/>
<path d="M23.7362 168.314C23.7362 168.314 24.815 170.361 23.858 172.281C22.901 174.201 21.6946 176.127 22.4138 177.089C23.133 178.052 25.3138 179.253 25.0586 181.294C24.8034 183.336 21.9324 187.425 23.7362 189.71C25.54 191.995 28.5444 191.874 28.6662 194.397C28.788 196.92 25.7662 198.961 26.6188 201.246C27.4714 203.532 32.4188 204.013 32.4188 205.573C32.4188 207.133 30.4932 208.821 32.0592 210.503C33.6252 212.185 41.1768 216.576 42.2324 214.772C43.288 212.968 45.492 207.98 44.0594 200.898C43.8158 199.709 42.1222 199.443 41.8844 197.761C41.6466 196.079 42.3658 193.074 41.1652 191.381C39.9646 189.687 36.1134 189.095 35.8756 187.773C35.6378 186.451 37.314 183.208 35.632 181.167C33.95 179.125 29.9828 178.174 29.9828 176.84C29.9828 175.506 31.1892 173.836 29.5072 172.032C27.8252 170.228 23.7362 168.314 23.7362 168.314Z" fill="#03D196"/>
<path d="M29.4883 182.477C31.9939 190.017 36.3787 200.266 38.1593 205.213C40.3227 211.222 42.2193 215.572 43.1647 221.581C44.1101 227.59 44.6553 267.836 44.6553 267.836" stroke="#263238" stroke-width="0.58" stroke-linecap="round" stroke-linejoin="round"/>
<path d="M24.3594 169.039C24.3594 169.039 26.401 170.721 28.2048 178.052C28.3208 178.522 28.4542 179.021 28.5992 179.549" stroke="#263238" stroke-width="0.58" stroke-linecap="round" stroke-linejoin="round"/>
<path d="M61.304 182.008C61.0595 182.499 60.9245 183.038 60.9085 183.587C60.8925 184.136 60.9957 184.681 61.2112 185.186C61.9768 186.723 62.9512 188.26 62.3712 189.032C61.7912 189.803 60.0512 190.772 60.2542 192.396C60.4572 194.02 62.754 197.302 61.3098 199.129C59.8656 200.956 57.4644 200.869 57.3658 202.882C57.2672 204.895 59.6858 206.536 59.0014 208.363C58.317 210.19 54.3614 210.579 54.3614 211.843C54.3614 213.107 55.9042 214.441 54.6514 215.787C53.3986 217.133 47.3666 220.63 46.5024 219.18C45.6382 217.73 43.8982 213.745 45.0408 208.079C45.2322 207.128 46.5894 206.919 46.7808 205.567C46.9722 204.216 46.398 201.815 47.3608 200.469C48.3236 199.124 51.4208 198.642 51.589 197.569C51.7572 196.496 50.429 193.915 51.7804 192.28C53.1318 190.644 56.3044 189.873 56.3044 188.8C56.3044 187.727 55.3416 186.393 56.6872 184.948C58.0328 183.504 61.304 182.008 61.304 182.008Z" fill="#03D196"/>
<path d="M56.6979 193.341C54.6969 199.39 51.1879 207.58 49.7379 211.536C47.9979 216.35 46.5015 219.83 45.7359 224.638C44.9703 229.446 44.5469 261.653 44.5469 261.653" stroke="#263238" stroke-width="0.58" stroke-linecap="round" stroke-linejoin="round"/>
<path d="M60.8188 182.588C60.8188 182.588 59.1832 183.933 57.7448 189.803C57.652 190.18 57.5418 190.58 57.4258 190.998" stroke="#263238" stroke-width="0.58" stroke-linecap="round" stroke-linejoin="round"/>
<path d="M28.2369 209.245C28.4405 209.654 28.5531 210.103 28.5671 210.561C28.5812 211.018 28.4962 211.474 28.3181 211.895C27.6743 213.183 26.8681 214.465 27.3495 215.108C27.8309 215.752 29.2809 216.558 29.1185 217.921C28.9561 219.284 27.0305 222.022 28.2369 223.547C29.4433 225.073 31.4501 224.992 31.5313 226.679C31.6125 228.367 29.5825 229.736 30.1625 231.261C30.7425 232.787 34.0195 233.112 34.0195 234.161C34.0195 235.211 32.7377 236.331 33.7817 237.456C34.8257 238.581 39.8775 241.516 40.6025 240.309C41.3275 239.103 42.7833 235.768 41.8205 231.029C41.6639 230.235 40.5329 230.055 40.3705 228.93C40.2081 227.805 40.6895 225.798 39.8891 224.673C39.0887 223.547 36.5135 223.147 36.3511 222.26C36.1887 221.372 37.3139 219.209 36.1887 217.84C35.0635 216.471 32.4129 215.833 32.4129 214.94C32.4129 214.047 33.2191 212.928 32.0939 211.721C30.9687 210.515 28.2369 209.245 28.2369 209.245Z" fill="#03D196"/>
<path d="M32.0742 218.716C33.7504 223.768 36.6794 230.606 37.8742 233.912C39.3242 237.931 40.5828 240.872 41.2208 244.857C41.8588 248.841 42.2184 263.788 42.2184 263.788" stroke="#263238" stroke-width="0.58" stroke-linecap="round" stroke-linejoin="round"/>
<path d="M28.6367 209.726C28.6367 209.726 30.0055 210.851 31.2061 215.752C31.2873 216.071 31.3743 216.402 31.4729 216.75" stroke="#263238" stroke-width="0.58" stroke-linecap="round" stroke-linejoin="round"/>
<path d="M69.5949 207.244C69.3019 207.596 69.0889 208.007 68.9707 208.45C68.8526 208.893 68.832 209.356 68.9105 209.807C69.2411 211.205 69.7341 212.638 69.1135 213.154C68.4929 213.67 66.9095 214.122 66.7529 215.474C66.5963 216.825 67.8491 219.94 66.3237 221.152C64.7983 222.364 62.8437 221.819 62.3971 223.472C61.9505 225.125 63.5571 226.882 62.6813 228.24C61.8055 229.597 58.5053 229.156 58.2617 230.177C58.0181 231.198 59.0215 232.578 57.7455 233.436C56.4695 234.295 50.9015 236 50.4549 234.649C50.0083 233.297 49.3761 229.73 51.3887 225.34C51.7309 224.603 52.8735 224.69 53.2853 223.629C53.6971 222.567 53.6913 220.508 54.7295 219.598C55.7677 218.687 58.3661 218.878 58.7257 218.055C59.0853 217.231 58.4821 214.865 59.8857 213.792C61.2893 212.719 64.0211 212.701 64.2241 211.837C64.4271 210.973 63.8993 209.703 65.2739 208.786C66.6485 207.87 69.5949 207.244 69.5949 207.244Z" fill="#03D196"/>
<path d="M63.7144 215.578C60.9304 220.114 56.5108 226.105 54.5968 229.052C52.2768 232.63 49.4754 234.921 48.8316 238.941C48.1878 242.96 47.8398 257.872 47.8398 257.872" stroke="#263238" stroke-width="0.58" stroke-linecap="round" stroke-linejoin="round"/>
<path d="M69.1193 207.621C69.1193 207.621 67.5301 208.404 65.2391 212.899C65.0883 213.189 64.9259 213.479 64.7461 213.809" stroke="#263238" stroke-width="0.58" stroke-linecap="round" stroke-linejoin="round"/>
<path d="M41.072 272.366H50.0098C54.7136 269.941 58.0544 263.805 58.0544 256.607C58.1308 252.292 56.8127 248.067 54.296 244.561H36.7858C34.2773 248.07 32.9674 252.294 33.0506 256.607C33.0506 263.805 36.3682 269.941 41.072 272.366Z" fill="white" stroke="#263238" stroke-width="0.58" stroke-linecap="round" stroke-linejoin="round"/>
<path d="M50.1783 272.366H41.0781V273.7H50.1783V272.366Z" fill="white" stroke="#263238" stroke-width="0.58" stroke-linecap="round" stroke-linejoin="round"/>
<path d="M174.217 47.4999H31.7461V155.333H174.217V47.4999Z" stroke="#263238" stroke-width="0.58" stroke-linecap="round" stroke-linejoin="round"/>
<path d="M170.889 50.3594H35.0703V152.48H170.889V50.3594Z" stroke="#263238" stroke-width="0.58" stroke-linecap="round" stroke-linejoin="round"/>
<path d="M76.4744 65.3466C76.4744 65.3466 54.2836 63.74 52.416 67.22C50.5484 70.7 51.8766 134.326 52.9496 135.126C54.0226 135.927 83.9622 136.46 86.9028 135.393C89.8434 134.326 85.8414 69.6212 85.8414 67.7478C85.8414 65.8744 78.8814 65.074 78.8814 65.074" stroke="#263238" stroke-width="1.16" stroke-linecap="round" stroke-linejoin="round"/>
<path d="M54.6992 118.011C54.7456 126.397 54.9254 132.545 55.3488 132.714C56.6828 133.247 85.0216 135.654 85.822 132.98C86.6224 130.307 83.6818 69.8881 83.6818 69.8881" stroke="#263238" stroke-width="1.16" stroke-linecap="round" stroke-linejoin="round"/>
<path d="M82.6166 69.6211C82.6166 69.6211 55.6176 68.5539 55.3566 69.8879C55.1826 70.7405 54.6896 95.7907 54.6954 114.003" stroke="#263238" stroke-width="1.16" stroke-linecap="round" stroke-linejoin="round"/>
<path d="M56.1484 74.4351H82.347" stroke="#263238" stroke-width="1.16" stroke-linecap="round" stroke-linejoin="round"/>
<path d="M79.9427 73.2228C78.3419 74.9164 79.9427 73.2228 81.0157 70.8042C82.0887 68.3856 79.9427 71.2856 77.5357 73.2228C75.1287 75.16 76.4685 73.71 77.2689 71.0478C78.0693 68.3856 76.4685 71.0478 74.3283 72.7414C72.1881 74.435 73.2611 73.71 74.0615 70.8042C74.8619 67.8984 74.0615 70.8042 70.8541 72.7414C67.6467 74.6786 69.2475 74.6728 70.8541 71.7728C72.4607 68.8728 69.7869 71.7728 66.8463 72.7414C63.9057 73.71 66.8463 72.7414 67.9135 70.0792C68.9807 67.417 66.0401 70.8042 63.9057 72.2542C61.7713 73.7042 63.9057 72.2542 64.4393 70.5606C64.9729 68.867 63.0995 71.0478 60.9593 73.2228C58.8191 75.3978 60.9593 73.2228 61.2261 71.2856C61.4929 69.3484 58.8191 74.435 58.8191 74.435C58.8191 74.435 59.6195 69.592 59.0859 70.8042C58.73 71.5813 58.28 72.3118 57.7461 72.9792" stroke="#03D196" stroke-width="1.16" stroke-linecap="round" stroke-linejoin="round"/>
<path d="M70.5866 78.9767H57.4844V92.6125H70.5866V78.9767Z" stroke="#03D196" stroke-width="1.16" stroke-linecap="round" stroke-linejoin="round"/>
<path d="M60.1582 78.9767L58.0238 81.3837L62.5652 79.7829L58.0238 84.0575L65.5058 79.2435L58.0238 87.2649L68.1796 79.7829L57.4844 89.6719L70.3198 80.8501L57.4844 92.6125L70.3198 84.0575L61.2312 92.0789L70.5866 86.9981L64.7054 91.8121L70.3198 89.9387L69.2468 91.8121" stroke="#03D196" stroke-width="1.16" stroke-linecap="round" stroke-linejoin="round"/>
<path d="M81.8877 120.684H71.8711V131.113H81.8877V120.684Z" stroke="#03D196" stroke-width="1.16" stroke-linecap="round" stroke-linejoin="round"/>
<path d="M73.9127 120.684L72.2771 122.523L75.7513 121.299L72.2771 124.57L78.0017 120.887L72.2771 127.024L80.0433 121.299L71.8711 128.862L81.6789 122.117L71.8711 131.113L81.6789 124.57L74.7305 130.701L81.8877 126.815L77.3869 130.498L81.6789 129.065L80.8611 130.498" stroke="#03D196" stroke-width="1.16" stroke-linecap="round" stroke-linejoin="round"/>
<path d="M57.2188 97.6931H82.8837" stroke="#263238" stroke-width="1.16" stroke-linecap="round" stroke-linejoin="round"/>
<path d="M56.9531 100.1L82.3513 100.367" stroke="#263238" stroke-width="1.16" stroke-linecap="round" stroke-linejoin="round"/>
<path d="M73.2617 79.7827H81.5499" stroke="#263238" stroke-width="1.16" stroke-linecap="round" stroke-linejoin="round"/>
<path d="M73.2617 82.9901H81.5499" stroke="#263238" stroke-width="1.16" stroke-linecap="round" stroke-linejoin="round"/>
<path d="M73.2617 86.1975H81.5499" stroke="#263238" stroke-width="1.16" stroke-linecap="round" stroke-linejoin="round"/>
<path d="M73.2617 89.405H81.5499" stroke="#263238" stroke-width="1.16" stroke-linecap="round" stroke-linejoin="round"/>
<path d="M82.349 101.701H57.4844V113.73H82.349V101.701Z" stroke="#03D196" stroke-width="1.16" stroke-linecap="round" stroke-linejoin="round"/>
<path d="M57.2172 104.108L60.6914 101.968L56.6836 108.116L63.3652 101.968L57.484 110.795L67.9124 101.701L58.8238 112.396L70.0526 101.968L61.4976 112.396L73.7936 101.701L63.9046 113.463L76.2006 101.968L66.8452 112.93L79.408 101.701L69.7858 113.463L82.3486 101.701L73.26 113.197L81.815 105.715L76.2006 112.663L81.815 108.922L80.713 110.708L79.6748 112.396" stroke="#03D196" stroke-width="1.16" stroke-linecap="round" stroke-linejoin="round"/>
<path d="M58.5586 116.943H81.5498" stroke="#263238" stroke-width="1.16" stroke-linecap="round" stroke-linejoin="round"/>
<path d="M58.0273 119.884H65.5093" stroke="#263238" stroke-width="1.16" stroke-linecap="round" stroke-linejoin="round"/>
<path d="M86.8984 71.2278L105.25 68.9716" stroke="#263238" stroke-width="1.16" stroke-linecap="round" stroke-linejoin="round"/>
<path d="M83.957 84.324H103.201" stroke="#263238" stroke-width="1.16" stroke-linecap="round" stroke-linejoin="round"/>
<path d="M53.4798 108.655L45.1916 111.596" stroke="#263238" stroke-width="1.16" stroke-linecap="round" stroke-linejoin="round"/>
<path d="M77.0036 132.98C77.0036 132.98 75.4028 141.268 86.359 143.42" stroke="#263238" stroke-width="1.16" stroke-linecap="round" stroke-linejoin="round"/>
<path d="M84.7605 141.268L87.4343 143.675L83.6875 144.743" stroke="#263238" stroke-width="1.16" stroke-linecap="round" stroke-linejoin="round"/>
<path d="M100.797 81.9171L105.077 84.5909L101.336 86.1975" stroke="#263238" stroke-width="1.16" stroke-linecap="round" stroke-linejoin="round"/>
<path d="M101.773 68.1711L106.315 68.7047L103.107 71.6453" stroke="#263238" stroke-width="1.16" stroke-linecap="round" stroke-linejoin="round"/>
<path d="M46.2562 108.922L41.7148 112.663L47.3292 112.93" stroke="#263238" stroke-width="1.16" stroke-linecap="round" stroke-linejoin="round"/>
<path d="M116.572 81.9171H106.41V92.6123H116.572V81.9171Z" fill="#03D196"/>
<path d="M108.816 84.324L114.698 84.5908" stroke="#263238" stroke-width="1.16" stroke-linecap="round" stroke-linejoin="round"/>
<path d="M108.816 86.4644L114.698 86.7312" stroke="#263238" stroke-width="1.16" stroke-linecap="round" stroke-linejoin="round"/>
<path d="M108.816 88.6046L114.698 88.8714" stroke="#263238" stroke-width="1.16" stroke-linecap="round" stroke-linejoin="round"/>
<path d="M100.408 96.3271L90.3164 97.5179L91.5698 108.139L101.661 106.949L100.408 96.3271Z" fill="#03D196"/>
<path d="M92.9883 99.6306L98.8579 99.2072" stroke="#263238" stroke-width="1.16" stroke-linecap="round" stroke-linejoin="round"/>
<path d="M93.2422 101.753L99.1118 101.33" stroke="#263238" stroke-width="1.16" stroke-linecap="round" stroke-linejoin="round"/>
<path d="M93.4882 103.876L99.3636 103.453" stroke="#263238" stroke-width="1.16" stroke-linecap="round" stroke-linejoin="round"/>
<path d="M47.7517 114.507L37.6602 115.698L38.9135 126.32L49.0051 125.129L47.7517 114.507Z" fill="#03D196"/>
<path d="M40.3164 117.807L46.1918 117.384" stroke="#263238" stroke-width="1.16" stroke-linecap="round" stroke-linejoin="round"/>
<path d="M40.5664 119.936L46.4418 119.513" stroke="#263238" stroke-width="1.16" stroke-linecap="round" stroke-linejoin="round"/>
<path d="M40.8242 122.059L46.6938 121.636" stroke="#263238" stroke-width="1.16" stroke-linecap="round" stroke-linejoin="round"/>
<path d="M100.261 136.759L90.1562 135.685L89.0253 146.32L99.1299 147.395L100.261 136.759Z" fill="#03D196"/>
<path d="M92.3047 138.328L98.1221 139.215" stroke="#263238" stroke-width="1.16" stroke-linecap="round" stroke-linejoin="round"/>
<path d="M92.0781 140.457L97.8955 141.344" stroke="#263238" stroke-width="1.16" stroke-linecap="round" stroke-linejoin="round"/>
<path d="M91.8516 142.585L97.669 143.472" stroke="#263238" stroke-width="1.16" stroke-linecap="round" stroke-linejoin="round"/>
<path d="M174.211 155.333H31.7461V158.976H174.211V155.333Z" fill="#263238" stroke="#263238" stroke-width="0.58" stroke-linecap="round" stroke-linejoin="round"/>
<path d="M231.38 181.439V174.642H210.924V181.439C210.922 183.666 210.154 185.825 208.749 187.553L207.855 188.66H234.448L233.555 187.553C232.15 185.825 231.382 183.666 231.38 181.439Z" fill="#263238" stroke="#263238" stroke-width="0.58" stroke-linecap="round" stroke-linejoin="round"/>
<path d="M230.228 181.439V174.642H209.771V181.439C209.769 183.666 209.001 185.825 207.596 187.553L206.703 188.66H233.296L232.403 187.553C230.998 185.825 230.23 183.666 230.228 181.439Z" fill="white" stroke="#263238" stroke-width="0.58" stroke-linecap="round" stroke-linejoin="round"/>
<path d="M230.385 176.562H209.848V178.644H230.385V176.562Z" fill="#263238"/>
<path d="M256.185 116.41H183.801C181.085 116.41 178.883 118.612 178.883 121.328V171.864C178.883 174.58 181.085 176.782 183.801 176.782H256.185C258.902 176.782 261.104 174.58 261.104 171.864V121.328C261.104 118.612 258.902 116.41 256.185 116.41Z" fill="#263238" stroke="#263238" stroke-width="0.58" stroke-linecap="round" stroke-linejoin="round"/>
<path d="M258.392 116.41H186.008C183.292 116.41 181.09 118.612 181.09 121.328V171.864C181.09 174.58 183.292 176.782 186.008 176.782H258.392C261.109 176.782 263.311 174.58 263.311 171.864V121.328C263.311 118.612 261.109 116.41 258.392 116.41Z" fill="#263238" stroke="#263238" stroke-width="0.58" stroke-linecap="round" stroke-linejoin="round"/>
<path d="M178.883 167.398H261.109V171.864C261.109 173.168 260.591 174.419 259.669 175.341C258.746 176.264 257.495 176.782 256.191 176.782H183.807C182.503 176.782 181.252 176.264 180.329 175.341C179.407 174.419 178.889 173.168 178.889 171.864V167.398H178.883Z" fill="white" stroke="#263238" stroke-width="0.58" stroke-linecap="round" stroke-linejoin="round"/>
<path d="M256.97 120.168H183.02V162.821H256.97V120.168Z" fill="white"/>
<path d="M208.751 124.611H194.205C193.231 124.611 192.441 125.4 192.441 126.374V156.418C192.441 157.392 193.231 158.181 194.205 158.181H208.751C209.725 158.181 210.514 157.392 210.514 156.418V126.374C210.514 125.4 209.725 124.611 208.751 124.611Z" fill="#263238"/>
<path d="M209.004 127.424H193.965V155.357H209.004V127.424Z" fill="#03D196"/>
<path d="M228.824 127.894H215.211V129.303H228.824V127.894Z" fill="#263238"/>
<path d="M221.796 130.95H215.457V137.522H221.796V130.95Z" fill="#03D196"/>
<path d="M227.885 151.135H224.492V154.655H227.885V151.135Z" fill="#03D196"/>
<path d="M228.524 142.214H215.613V148.785H228.524V142.214Z" fill="#03D196"/>
<path d="M222.961 131.42H228.123" stroke="#263238" stroke-width="0.58" stroke-linecap="round" stroke-linejoin="round"/>
<path d="M222.961 133.062H228.123" stroke="#263238" stroke-width="0.58" stroke-linecap="round" stroke-linejoin="round"/>
<path d="M222.961 134.703H228.123" stroke="#263238" stroke-width="0.58" stroke-linecap="round" stroke-linejoin="round"/>
<path d="M222.961 136.344H228.123" stroke="#263238" stroke-width="0.58" stroke-linecap="round" stroke-linejoin="round"/>
<path d="M215.84 140.103H228.281" stroke="#263238" stroke-width="0.58" stroke-linecap="round" stroke-linejoin="round"/>
<path d="M215.84 150.433H228.281" stroke="#263238" stroke-width="0.58" stroke-linecap="round" stroke-linejoin="round"/>
<path d="M230.008 126.49H214.047V156.07H230.008V126.49Z" stroke="#263238" stroke-width="0.58" stroke-linecap="round" stroke-linejoin="round"/>
<path d="M249.483 126.49H234.461V137.522H249.483V126.49Z" fill="#BFBFBF"/>
<path d="M249.483 126.49H234.461V128.839H249.483V126.49Z" fill="#263238"/>
<path d="M239.556 130.544H235.629V134.343H239.556V130.544Z" stroke="#263238" stroke-width="0.58" stroke-linecap="round" stroke-linejoin="round"/>
<path d="M247.411 130.544H243.484V134.343H247.411V130.544Z" stroke="#263238" stroke-width="0.58" stroke-linecap="round" stroke-linejoin="round"/>
<path d="M248.043 127.824C248.043 127.939 248.009 128.051 247.945 128.146C247.881 128.242 247.791 128.316 247.685 128.36C247.579 128.404 247.462 128.415 247.35 128.393C247.237 128.371 247.134 128.315 247.053 128.234C246.972 128.153 246.916 128.05 246.894 127.937C246.872 127.825 246.883 127.708 246.927 127.602C246.971 127.496 247.045 127.406 247.141 127.342C247.236 127.278 247.348 127.244 247.463 127.244C247.617 127.244 247.764 127.305 247.873 127.414C247.982 127.523 248.043 127.67 248.043 127.824Z" fill="white"/>
<path d="M244.748 128.393C245.062 128.393 245.316 128.138 245.316 127.824C245.316 127.51 245.062 127.256 244.748 127.256C244.434 127.256 244.18 127.51 244.18 127.824C244.18 128.138 244.434 128.393 244.748 128.393Z" fill="white"/>
<path d="M248.287 143.502H236.785V151.952H248.287V143.502Z" fill="#BFBFBF"/>
<path d="M248.287 143.502H236.785V145.3H248.287V143.502Z" fill="#263238"/>
<path d="M247.186 144.522C247.187 144.61 247.163 144.695 247.115 144.769C247.067 144.842 246.999 144.899 246.918 144.934C246.838 144.968 246.749 144.977 246.663 144.961C246.577 144.945 246.498 144.903 246.436 144.842C246.374 144.78 246.331 144.702 246.314 144.616C246.296 144.531 246.304 144.442 246.338 144.361C246.371 144.28 246.427 144.211 246.5 144.162C246.573 144.113 246.658 144.087 246.745 144.087C246.861 144.087 246.973 144.133 247.055 144.214C247.138 144.296 247.185 144.406 247.186 144.522Z" fill="white"/>
<path d="M245.1 144.522C245.1 144.638 245.055 144.748 244.973 144.83C244.891 144.911 244.781 144.957 244.665 144.957C244.55 144.957 244.439 144.911 244.358 144.83C244.276 144.748 244.23 144.638 244.23 144.522C244.23 144.407 244.276 144.296 244.358 144.215C244.439 144.133 244.55 144.087 244.665 144.087C244.781 144.087 244.891 144.133 244.973 144.215C245.055 144.296 245.1 144.407 245.1 144.522Z" fill="white"/>
<path d="M190.285 122.407H185.453V160.298H190.285V122.407Z" fill="#BFBFBF"/>
<path d="M190.285 122.407H185.453V124.147H190.285V122.407Z" fill="#263238"/>
<path d="M188.929 125.307H186.609V128.015H188.929V125.307Z" stroke="#263238" stroke-width="0.58" stroke-linecap="round" stroke-linejoin="round"/>
<path d="M188.929 129.75H186.609V132.458H188.929V129.75Z" stroke="#263238" stroke-width="0.58" stroke-linecap="round" stroke-linejoin="round"/>
<path d="M188.929 134.198H186.609V136.907H188.929V134.198Z" stroke="#263238" stroke-width="0.58" stroke-linecap="round" stroke-linejoin="round"/>
<path d="M188.929 138.647H186.609V141.356H188.929V138.647Z" stroke="#263238" stroke-width="0.58" stroke-linecap="round" stroke-linejoin="round"/>
<path d="M188.929 143.09H186.609V145.798H188.929V143.09Z" stroke="#263238" stroke-width="0.58" stroke-linecap="round" stroke-linejoin="round"/>
<path d="M188.929 147.538H186.609V150.247H188.929V147.538Z" stroke="#263238" stroke-width="0.58" stroke-linecap="round" stroke-linejoin="round"/>
<path d="M188.929 151.987H186.609V154.696H188.929V151.987Z" stroke="#263238" stroke-width="0.58" stroke-linecap="round" stroke-linejoin="round"/>
<path d="M188.929 156.43H186.609V159.138H188.929V156.43Z" stroke="#263238" stroke-width="0.58" stroke-linecap="round" stroke-linejoin="round"/>
<path d="M254.863 122.018H193.383V123.567H254.863V122.018Z" fill="#BFBFBF"/>
<path d="M254.863 159.527H193.383V161.076H254.863V159.527Z" fill="#BFBFBF"/>
<path d="M233.302 188.66H206.703V189.872H233.302V188.66Z" fill="#263238" stroke="#263238" stroke-width="0.58" stroke-linecap="round" stroke-linejoin="round"/>
<path d="M250.686 187.669H188.934V189.873H250.686V187.669Z" fill="white" stroke="#263238" stroke-width="0.58" stroke-linecap="round" stroke-linejoin="round"/>
<path d="M133.602 273.7H131.091L129.832 196.751H134.861L133.602 273.7Z" fill="white" stroke="#263238" stroke-width="0.58" stroke-linecap="round" stroke-linejoin="round"/>
<path d="M133.604 273.7H132.496L132.647 196.751H134.862L133.604 273.7Z" fill="#263238" stroke="#263238" stroke-width="0.58" stroke-linecap="round" stroke-linejoin="round"/>
<path d="M169.407 273.7H166.895L165.637 196.751H170.665L169.407 273.7Z" fill="white" stroke="#263238" stroke-width="0.58" stroke-linecap="round" stroke-linejoin="round"/>
<path d="M169.405 273.7H168.297L168.448 196.751H170.663L169.405 273.7Z" fill="#263238" stroke="#263238" stroke-width="0.58" stroke-linecap="round" stroke-linejoin="round"/>
<path d="M156.586 273.7H154.069L152.816 196.751H157.839L156.586 273.7Z" fill="#263238" stroke="#263238" stroke-width="0.58" stroke-linecap="round" stroke-linejoin="round"/>
<path d="M156.596 273.7H155.488L155.633 196.751H157.849L156.596 273.7Z" fill="#263238" stroke="#263238" stroke-width="0.58" stroke-linecap="round" stroke-linejoin="round"/>
<path d="M180.782 273.7H178.265L177.012 196.751H182.035L180.782 273.7Z" fill="#263238" stroke="#263238" stroke-width="0.58" stroke-linecap="round" stroke-linejoin="round"/>
<path d="M180.782 273.7H179.668L179.819 196.751H182.034L180.782 273.7Z" fill="#263238" stroke="#263238" stroke-width="0.58" stroke-linecap="round" stroke-linejoin="round"/>
<path d="M182.663 197.929H143.234V246.069H182.663V197.929Z" fill="#263238" stroke="#263238" stroke-width="0.58" stroke-linecap="round" stroke-linejoin="round"/>
<path d="M171.78 197.929H132.351V246.069H171.78V197.929Z" fill="white" stroke="#263238" stroke-width="0.58" stroke-linecap="round" stroke-linejoin="round"/>
<path d="M251.415 273.7H248.903L247.645 196.751H252.673L251.415 273.7Z" fill="white" stroke="#263238" stroke-width="0.58" stroke-linecap="round" stroke-linejoin="round"/>
<path d="M251.412 273.7H250.305L250.455 196.751H252.671L251.412 273.7Z" fill="#263238" stroke="#263238" stroke-width="0.58" stroke-linecap="round" stroke-linejoin="round"/>
<path d="M274.399 273.7H271.882L270.629 196.751H275.652L274.399 273.7Z" fill="#263238" stroke="#263238" stroke-width="0.58" stroke-linecap="round" stroke-linejoin="round"/>
<path d="M274.405 273.7H273.297L273.442 196.751H275.657L274.405 273.7Z" fill="#263238" stroke="#263238" stroke-width="0.58" stroke-linecap="round" stroke-linejoin="round"/>
<path d="M277.238 193.851H126.52V199.147H277.238V193.851Z" fill="white" stroke="#263238" stroke-width="0.58" stroke-linecap="round" stroke-linejoin="round"/>
<path d="M277.238 193.851H126.52V196.496H277.238V193.851Z" fill="#263238" stroke="#263238" stroke-width="0.58" stroke-linecap="round" stroke-linejoin="round"/>
<path d="M277.241 193.851H254.992V199.147H277.241V193.851Z" fill="#263238" stroke="#263238" stroke-width="0.58" stroke-linecap="round" stroke-linejoin="round"/>
<path d="M282.113 189.6H122.434V194.895H282.113V189.6Z" fill="white" stroke="#263238" stroke-width="0.58" stroke-linecap="round" stroke-linejoin="round"/>
<path d="M282.108 189.6H259.859V194.895H282.108V189.6Z" fill="#263238" stroke="#263238" stroke-width="0.58" stroke-linecap="round" stroke-linejoin="round"/>
<path d="M169.365 202.552H134.855V219.372H169.365V202.552Z" fill="white" stroke="#263238" stroke-width="0.58" stroke-linecap="round" stroke-linejoin="round"/>
<path d="M155.884 209.221H148.344V211.831H155.884V209.221Z" fill="#263238" stroke="#263238" stroke-width="0.58" stroke-linecap="round" stroke-linejoin="round"/>
<path d="M169.365 223.721H134.855V240.541H169.365V223.721Z" fill="white" stroke="#263238" stroke-width="0.58" stroke-linecap="round" stroke-linejoin="round"/>
<path d="M155.884 230.392H148.344V233.002H155.884V230.392Z" fill="#263238" stroke="#263238" stroke-width="0.58" stroke-linecap="round" stroke-linejoin="round"/>
<path d="M222.484 228.733H232.797V207.992H222.484V228.733Z" fill="#263238"/>
<path d="M225.066 250.088H230.223V221.367H225.066V250.088Z" fill="#263238"/>
<path d="M229.739 247.878C229.739 247.878 234.072 252.797 245.208 254.508C251.089 255.412 257.214 256.538 262.527 259.351C265.943 261.16 272.746 265.122 272.746 269.646C272.752 270.31 272.594 270.966 272.287 271.555C271.979 272.144 271.532 272.649 270.985 273.025C270.437 273.401 269.805 273.637 269.145 273.712C268.485 273.787 267.816 273.699 267.198 273.455C266.58 273.212 266.031 272.82 265.599 272.315C265.168 271.81 264.867 271.206 264.723 270.558C264.579 269.909 264.596 269.235 264.774 268.594C264.951 267.954 265.283 267.367 265.74 266.885C262.958 262.7 258.645 259.774 253.728 258.736C245.26 256.891 239.077 257.645 227.164 249.723L229.739 247.878Z" fill="#263238"/>
<path d="M226.058 247.878C226.058 247.878 221.725 252.797 210.589 254.508C204.708 255.412 198.583 256.538 193.271 259.351C189.849 261.16 183.051 265.122 183.051 269.646C183.045 270.311 183.202 270.967 183.509 271.557C183.815 272.147 184.263 272.653 184.811 273.03C185.359 273.406 185.991 273.643 186.652 273.718C187.312 273.793 187.982 273.705 188.6 273.461C189.219 273.217 189.768 272.825 190.2 272.319C190.631 271.813 190.932 271.208 191.075 270.559C191.219 269.91 191.2 269.235 191.022 268.594C190.843 267.954 190.51 267.367 190.052 266.885C192.835 262.701 197.147 259.776 202.063 258.736C210.537 256.891 216.72 257.645 228.633 249.723L226.058 247.878Z" fill="#263238"/>
<path d="M225.878 273.7H229.77C229.981 273.7 230.152 273.529 230.152 273.317V266.473C230.152 266.262 229.981 266.09 229.77 266.09H225.878C225.666 266.09 225.495 266.262 225.495 266.473V273.317C225.495 273.529 225.666 273.7 225.878 273.7Z" fill="#263238"/>
<path d="M226.727 273.7H228.937V248.569H226.727V273.7Z" fill="#263238"/>
<path d="M252.617 148.107C251.33 154.973 250.554 161.925 250.297 168.905C250.129 174.288 250.042 178.899 249.961 182.965C249.717 195.603 249.578 202.609 247.589 204.494C247.333 204.668 245.686 205.683 242.241 205.973C241.278 206.054 238.216 206.095 234.051 206.118C220.845 206.078 206.965 205.967 206.745 205.967H205.939C205.904 205.967 205.875 206.031 205.846 206.06C197.912 206.014 195.87 205.967 195.725 205.967H194.919C193.254 207.412 194.246 209.268 195.696 209.279C196.781 209.279 215.683 209.447 228.611 209.447C230.896 209.447 233.048 209.447 234.956 209.447H243.691C250.46 209.447 256.068 209.401 257.611 209.273C262.396 208.879 264.542 207.261 264.768 207.075C267.958 204.245 268.08 198.033 268.376 183.034C268.451 178.974 268.544 174.369 268.706 169.01C268.967 162 269.762 155.019 271.084 148.13L252.617 148.107Z" fill="#263238"/>
<path d="M150.072 256.398L151.377 263.213C151.377 263.213 150.217 265.678 145.722 267.708C141.227 269.738 139.052 270.608 139.052 271.188C139.052 271.768 138.762 273.073 139.922 273.508C141.082 273.943 165.732 273.508 165.732 273.508C165.732 273.508 167.037 272.928 167.037 270.173C167.037 267.418 165.877 262.343 165.877 261.183C165.877 260.023 165.059 257.228 165.059 256.833C165.059 256.439 155.147 256.978 155.147 256.978C155.147 256.978 152.247 254.223 150.072 256.398Z" fill="white" stroke="#263238" stroke-width="0.58" stroke-linecap="round" stroke-linejoin="round"/>
<path d="M155.145 256.979C155.145 256.979 155.87 263.504 156.305 263.939C156.74 264.374 165.875 264.374 165.875 264.374" fill="white"/>
<path d="M155.145 256.979C155.145 256.979 155.87 263.504 156.305 263.939C156.74 264.374 165.875 264.374 165.875 264.374" stroke="#263238" stroke-width="0.58" stroke-linecap="round" stroke-linejoin="round"/>
<path d="M165.877 261.184L155.727 261.329" stroke="#263238" stroke-width="0.58" stroke-linecap="round" stroke-linejoin="round"/>
<path d="M139.047 272.349H166.742" stroke="#263238" stroke-width="0.58" stroke-linecap="round" stroke-linejoin="round"/>
<path d="M168.191 174.665C168.191 174.665 160.152 201.728 159.166 205.457C158.18 209.187 163.875 241.933 163.875 242.519C163.875 243.105 164.658 244.874 164.658 246.834C164.658 248.795 163.875 249.381 164.27 249.972C164.664 250.564 166.01 251.933 165.836 253.11C165.776 254.017 165.359 254.864 164.676 255.465C164.243 255.916 163.705 256.253 163.11 256.445H158.4C158.4 256.445 157.24 247.617 154.085 224.284C150.93 200.951 156.051 187.611 157.031 183.295C157.699 180.512 158.686 177.814 159.972 175.257L168.191 174.665Z" fill="#263238" stroke="#263238" stroke-width="0.58" stroke-linecap="round" stroke-linejoin="round"/>
<path d="M143.4 256.398L144.705 263.213C144.705 263.213 143.545 265.678 139.05 267.708C134.555 269.738 132.38 270.608 132.38 271.188C132.38 271.768 132.09 273.073 133.25 273.508C134.41 273.943 159.06 273.508 159.06 273.508C159.06 273.508 160.365 272.928 160.365 270.173C160.365 267.418 159.205 262.343 159.205 261.183C159.205 260.023 158.387 257.228 158.387 256.833C158.387 256.439 148.475 256.978 148.475 256.978C148.475 256.978 145.575 254.223 143.4 256.398Z" fill="white" stroke="#263238" stroke-width="0.58" stroke-linecap="round" stroke-linejoin="round"/>
<path d="M148.477 256.979C148.477 256.979 149.202 263.504 149.637 263.939C150.072 264.374 159.207 264.374 159.207 264.374" fill="white"/>
<path d="M148.477 256.979C148.477 256.979 149.202 263.504 149.637 263.939C150.072 264.374 159.207 264.374 159.207 264.374" stroke="#263238" stroke-width="0.58" stroke-linecap="round" stroke-linejoin="round"/>
<path d="M159.209 261.184L149.059 261.329" stroke="#263238" stroke-width="0.58" stroke-linecap="round" stroke-linejoin="round"/>
<path d="M132.379 272.349H160.074" stroke="#263238" stroke-width="0.58" stroke-linecap="round" stroke-linejoin="round"/>
<path d="M135.837 174.665C135.837 174.665 135.639 191.729 136.62 198.984C137.6 206.24 141.329 223.107 141.915 232.323C142.501 241.539 143.487 245.86 143.487 245.86C143.487 245.86 142.095 247.02 142.095 248.18C142.095 249.34 142.878 249.34 142.675 251.126C142.472 252.913 141.695 253.475 142.286 254.264C142.878 255.053 143.266 256.613 145.227 257.008C147.187 257.402 156.403 257.205 158.364 256.81C160.324 256.416 161.304 254.456 161.304 252.89C161.304 251.324 160.724 250.146 160.724 248.377C160.724 246.608 161.705 245.048 161.705 243.871C161.705 242.693 161.31 242.102 161.31 240.924C161.31 239.747 158.764 220.926 158.764 217.005C158.764 213.084 158.567 199.744 159.153 196.409C159.738 193.074 162.685 177.194 162.685 177.194L135.837 174.665Z" fill="#03D196" stroke="#263238" stroke-width="0.58" stroke-linecap="round" stroke-linejoin="round"/>
<path d="M148.266 180.419C150.595 181.217 153.022 181.692 155.481 181.828C157.37 181.881 159.253 182.057 161.118 182.356L162.174 177.426L148.266 180.419Z" fill="#263238" stroke="#263238" stroke-width="0.58" stroke-linecap="round" stroke-linejoin="round"/>
<path d="M146.117 181.265C146.117 181.265 147.08 208.212 149.017 217.196C150.954 226.18 153.506 240.936 152.868 242.861C152.23 244.787 151.262 249.276 151.262 249.276C151.262 249.276 154.794 248.638 154.794 250.558C154.794 252.478 149.661 253.771 150.943 254.734C152.225 255.697 153.501 256.752 153.501 256.752" stroke="#263238" stroke-width="0.58" stroke-linecap="round" stroke-linejoin="round"/>
<path d="M157.511 250.135C157.511 250.135 146.862 251.875 149.884 252.455C152.905 253.035 158.665 252.31 158.955 251.59C159.245 250.871 158.375 249.99 157.511 250.135Z" fill="#263238" stroke="#263238" stroke-width="0.58" stroke-linecap="round" stroke-linejoin="round"/>
<path d="M110.507 63.8269L110.211 75.8677L121.567 75.7691L121.666 63.7283L110.507 63.8269Z" fill="#03D196"/>
<path d="M123.427 86.0467C123.427 86.0467 120.98 83.5991 119.901 81.3487C118.822 79.0983 117.262 77.7295 117.262 76.1635C117.262 74.5975 117.946 70.9435 117.65 69.5051C117.355 68.0667 117.65 65.0043 118.631 65.0043C118.858 65.0043 119.083 65.0558 119.288 65.155C119.493 65.2542 119.672 65.3985 119.814 65.577C119.955 65.7556 120.054 65.9638 120.103 66.186C120.152 66.4083 120.15 66.6388 120.098 66.8603C119.901 67.8405 120.678 71.2683 120.678 71.2683C120.678 71.2683 121.461 64.7085 121.56 64.3083C121.658 63.9081 123.027 63.9139 123.619 64.2097C124.21 64.5055 124.889 64.4011 124.889 65.6771C124.889 66.9531 124.593 68.4147 124.593 68.7105C124.593 69.0063 127.336 70.5723 127.435 71.7439C127.534 72.9155 127.238 75.7575 126.553 76.9639C126.085 77.6937 125.696 78.4715 125.393 79.2839C125.295 79.6725 128.038 83.7847 128.038 83.7847L123.427 86.0467Z" fill="white" stroke="#263238" stroke-width="0.58" stroke-linecap="round" stroke-linejoin="round"/>
<path d="M127.994 81.9113L121.324 87.0095C121.324 87.0095 132.698 110.54 133.092 111.3C133.487 112.06 141.717 117.187 141.717 117.187L154.071 101.886C154.071 101.886 138.579 96.9855 138.191 96.3997C137.802 95.8139 127.994 81.9113 127.994 81.9113Z" fill="#263238" stroke="#263238" stroke-width="0.58" stroke-linecap="round" stroke-linejoin="round"/>
<path d="M135.857 168.384L135.277 177.519C135.277 177.519 142.817 180.709 150.937 180.564C159.057 180.419 169.932 177.229 169.932 177.229L171.527 168.239C171.527 168.239 151.952 169.834 146.007 169.254C140.062 168.674 135.857 168.384 135.857 168.384Z" fill="white" stroke="#263238" stroke-width="0.58" stroke-linecap="round" stroke-linejoin="round"/>
<path d="M130.056 165.483L129.621 168.093C129.621 168.093 135.763 171.446 149.341 172.733C157.697 173.504 166.123 172.617 174.136 170.123L174.281 165.628C167.06 167.35 159.664 168.226 152.241 168.238C144.774 168.045 137.344 167.122 130.056 165.483Z" fill="#263238" stroke="#263238" stroke-width="0.58" stroke-linecap="round" stroke-linejoin="round"/>
<path d="M141.078 111.543C141.078 111.543 136.293 119.953 134.698 126.478C133.103 133.003 129.913 163.163 129.478 164.903C129.043 166.643 139.193 170.123 145.863 170.268C152.533 170.413 167.468 170.703 170.078 169.688C172.688 168.673 175.153 167.223 175.153 165.628C175.153 164.033 175.298 158.088 175.298 153.303C175.298 148.518 173.848 123.288 172.543 117.488C171.238 111.688 170.368 107.628 169.933 106.903C169.498 106.178 166.308 102.698 159.783 103.133C154.691 103.509 149.742 104.993 145.283 107.483C143.629 108.548 142.201 109.928 141.078 111.543Z" fill="#263238" stroke="#263238" stroke-width="0.58" stroke-linecap="round" stroke-linejoin="round"/>
<path d="M97.3476 120.916C97.3476 120.916 94.9928 121.897 94.7956 124.251C94.5984 126.606 98.9194 128.955 101.466 132.487C104.012 136.02 107.347 139.72 107.347 139.72L112.451 146.779L118.529 141.68L102.84 123.48C102.84 123.48 103.623 121.74 102.643 121.125C101.818 120.741 100.925 120.525 100.016 120.489C99.1072 120.453 98.2001 120.599 97.3476 120.916Z" fill="white" stroke="#263238" stroke-width="0.58" stroke-linecap="round" stroke-linejoin="round"/>
<path d="M97.7422 126.409L115.415 120.522C115.415 120.522 116.575 125.429 121.882 130.527C125.064 133.593 128.474 136.412 132.084 138.96L116.198 147.979L97.7422 126.409Z" fill="white" stroke="#263238" stroke-width="0.58" stroke-linecap="round" stroke-linejoin="round"/>
<path d="M97.7423 126.409C98.5208 125.535 99.0004 124.436 99.1111 123.271C99.1636 122.733 99.0148 122.194 98.6934 121.759C98.3721 121.324 97.901 121.024 97.3711 120.916L114.823 115.818C114.823 115.818 118.158 116.978 115.403 120.522L97.7423 126.409Z" fill="white" stroke="#263238" stroke-width="0.58" stroke-linecap="round" stroke-linejoin="round"/>
<path d="M121.131 145.056C121.131 145.056 117.21 144.476 117.013 143.316C116.816 142.156 116.033 139.592 115.273 138.612C114.513 137.632 110.761 135.672 109.583 134.297C108.406 132.922 107.623 130.962 106.84 131.159C106.057 131.356 104.879 132.139 105.268 132.899C105.657 133.659 107.426 137.023 107.426 137.023L107.82 138.392C107.82 138.392 104.288 137.812 103.702 137.609C103.531 137.56 103.351 137.554 103.177 137.592C103.004 137.629 102.842 137.709 102.706 137.823C102.571 137.938 102.465 138.084 102.399 138.249C102.333 138.414 102.308 138.592 102.327 138.769C102.327 139.749 101.544 139.749 102.525 140.335C103.505 140.921 104.682 141.709 104.682 141.709C104.682 141.709 106.057 144.847 106.422 145.433C106.788 146.019 109.954 147.399 110.54 147.788C111.126 148.176 114.27 149.162 115.836 149.528C117.402 149.893 120.934 151.297 120.934 151.297L121.914 146.784L121.131 145.056Z" fill="white" stroke="#263238" stroke-width="0.58" stroke-linecap="round" stroke-linejoin="round"/>
<path d="M162.703 117.993C162.703 117.993 162.309 134.662 162.309 135.445C162.309 136.228 162.889 152.312 161.149 153.68C159.409 155.049 150.755 156.818 138.204 156.43C125.653 156.041 120.16 153.292 120.16 153.292L121.14 145.056L145.065 143.316C145.065 143.316 142.519 125.081 142.908 118.805C143.296 112.529 148.4 109.194 148.4 109.194" fill="#263238"/>
<path d="M162.703 117.993C162.703 117.993 162.309 134.662 162.309 135.445C162.309 136.228 162.889 152.312 161.149 153.68C159.409 155.049 150.755 156.818 138.204 156.43C125.653 156.041 120.16 153.292 120.16 153.292L121.14 145.056L145.065 143.316C145.065 143.316 142.519 125.081 142.908 118.805C143.296 112.529 148.4 109.194 148.4 109.194" stroke="#263238" stroke-width="0.58" stroke-linecap="round" stroke-linejoin="round"/>
<path d="M136.297 157.161C136.297 157.161 160.042 157.99 161.295 155.073C162.548 152.155 162.542 123.41 162.542 123.41" stroke="#707070" stroke-width="0.58" stroke-linecap="round" stroke-linejoin="round"/>
<path d="M146.737 112.576C146.737 112.576 141.731 117.993 142.567 125.075C143.402 132.157 145.072 143.287 145.072 143.287L135.902 143.826" stroke="#707070" stroke-width="0.58" stroke-linecap="round" stroke-linejoin="round"/>
<path d="M136.6 67.2894C136.6 67.2894 133.311 72.9792 133.943 73.7332C134.576 74.4872 134.071 75.885 134.071 75.885C134.071 75.885 130.782 78.4138 131.038 79.2954C131.293 80.177 133.938 82.584 133.938 82.584C133.938 82.584 134.442 89.4106 135.098 90.0428C135.753 90.675 140.028 91.429 140.898 91.5566C141.378 91.616 141.847 91.7449 142.29 91.9394L144.813 105.587L158.97 92.8268L156.697 86.76C156.697 86.76 155.432 78.64 155.537 74.8816C155.641 71.1232 149.087 66.5354 145.172 65.3986C141.257 64.2618 136.6 67.2894 136.6 67.2894Z" fill="white" stroke="#263238" stroke-width="0.58" stroke-linecap="round" stroke-linejoin="round"/>
<path d="M139.248 59.5755C139.248 59.5755 135.965 56.1651 132.044 58.8215C128.123 61.4779 129.266 65.7815 132.804 67.2895C136.342 68.7975 140.512 67.6665 139.126 69.1861C137.74 70.7057 137.386 73.9885 139.503 74.6207C141.62 75.2529 141.272 77.6541 141.272 78.6807C141.272 79.7073 143.012 79.5681 143.424 78.6807C143.835 77.7933 144.81 75.3979 147.211 76.4071C149.612 77.4163 149.49 82.9785 148.603 84.3705C147.716 85.7625 146.834 85.6349 146.834 85.6349C146.834 85.6349 148.226 86.1395 147.339 87.7809L146.457 89.4281C146.457 89.4281 148.475 91.8293 153.533 90.9419C158.591 90.0545 159.727 87.7809 158.968 85.8901C158.208 83.9993 156.439 83.7383 158.335 80.9601C160.232 78.1819 164.913 74.8875 164.53 68.5713C164.28 64.4011 154.42 60.4513 154.42 60.4513C154.42 60.4513 156.694 56.6581 151.52 54.2569C146.347 51.8557 140.402 54.6397 140.779 57.1569C141.156 59.6741 139.248 59.5755 139.248 59.5755Z" fill="#263238" stroke="#263238" stroke-width="0.58" stroke-linecap="round" stroke-linejoin="round"/>
<path d="M133.909 73.2809C133.909 73.2809 132.302 72.8517 132.169 73.6115C132.035 74.3713 132.169 78.1587 132.169 78.1587C132.734 78.5104 133.408 78.6464 134.065 78.5415C134.953 78.2863 134.442 75.1253 134.442 75.1253" stroke="#263238" stroke-width="0.58" stroke-linecap="round" stroke-linejoin="round"/>
<path d="M143.93 77.5265L132.289 75.6009L132.301 74.8701L143.93 77.5265Z" fill="#263238" stroke="#263238" stroke-width="0.58" stroke-linecap="round" stroke-linejoin="round"/>
<path d="M160.622 88.9061C160.622 88.9061 154.172 93.5809 149.747 98.3833C145.321 103.186 140.014 108.498 139.776 110.14C139.539 111.781 140.026 114.31 142.555 111.654C145.083 108.997 149.758 105.465 153.302 105.21C156.846 104.955 162.275 106.729 165.053 107.106C167.831 107.483 169.606 108.266 170.615 106.729C171.624 105.192 168.974 101.799 168.974 100.025C168.974 98.2499 169.351 95.2223 168.086 93.0647C166.822 90.9071 162.768 88.2739 160.622 88.9061Z" fill="#757575" stroke="#263238" stroke-width="0.58" stroke-linecap="round" stroke-linejoin="round"/>
<path d="M168.879 95.1643C168.52 96.3926 168.03 97.5788 167.418 98.7023C166.681 99.7985 156.316 101.875 156.316 101.875C156.316 101.875 164.854 101.388 166.437 101.388C168.021 101.388 169.854 102.849 169.854 102.849L169.001 100.529C169.001 100.529 169.355 96.2663 168.879 95.1643Z" fill="#263238" stroke="#263238" stroke-width="0.58" stroke-linecap="round" stroke-linejoin="round"/>
<path d="M18.5586 273.7H283.619" stroke="#263238" stroke-width="0.58" stroke-linecap="round" stroke-linejoin="round"/>
</svg>
