<svg width="212" height="41" viewBox="0 0 212 41" fill="none" xmlns="http://www.w3.org/2000/svg">
<rect x="10.1006" y="-4.57764e-05" width="10.1015" height="10.1015" fill="#213D39"/>
<rect x="20.2032" y="10.1343" width="10.1015" height="10.1015" fill="#03D196"/>
<rect y="10.0687" width="10.1015" height="10.1015" fill="#213D39"/>
<rect x="20.2032" y="20.1703" width="10.1015" height="10.1015" fill="#03D196"/>
<rect x="10.1006" y="20.1703" width="10.1015" height="10.1015" fill="#03D196"/>
<rect y="30.2717" width="10.1015" height="10.1015" fill="#213D39"/>
<rect width="10.1015" height="10.1015" fill="#213D39"/>
<path d="M47.0482 12.6325H54.5721C55.7822 12.6325 56.7695 12.8076 57.5338 13.158C58.2982 13.5083 58.8873 13.9462 59.3014 14.4716C59.7154 14.9971 59.994 15.5704 60.1373 16.1914C60.2966 16.8124 60.3762 17.3857 60.3762 17.9111C60.3762 18.4366 60.2966 19.0099 60.1373 19.6309C59.994 20.236 59.7154 20.8013 59.3014 21.3267C58.8873 21.8522 58.2982 22.2901 57.5338 22.6404C56.7695 22.9748 55.7822 23.142 54.5721 23.142H50.0338V29.6866H47.0482V12.6325ZM50.0338 20.7057H54.4049C54.7392 20.7057 55.0816 20.658 55.4319 20.5624C55.7822 20.4669 56.1007 20.3156 56.3873 20.1086C56.6899 19.8857 56.9287 19.599 57.1039 19.2487C57.295 18.8825 57.3905 18.4287 57.3905 17.8873C57.3905 17.3299 57.3109 16.8681 57.1517 16.5019C56.9924 16.1357 56.7775 15.849 56.5068 15.642C56.2361 15.4191 55.9256 15.2678 55.5752 15.1882C55.2249 15.1086 54.8507 15.0688 54.4526 15.0688H50.0338V20.7057ZM62.5973 17.3379H65.1531V19.7264H65.2008C65.2805 19.392 65.4317 19.0656 65.6547 18.7471C65.8935 18.4287 66.1722 18.142 66.4907 17.8873C66.825 17.6166 67.1913 17.4016 67.5894 17.2423C67.9875 17.0831 68.3935 17.0035 68.8075 17.0035C69.126 17.0035 69.341 17.0115 69.4524 17.0274C69.5798 17.0433 69.7072 17.0592 69.8346 17.0752V19.7025C69.6435 19.6707 69.4445 19.6468 69.2375 19.6309C69.0464 19.599 68.8553 19.5831 68.6642 19.5831C68.2024 19.5831 67.7645 19.6787 67.3505 19.8697C66.9524 20.0449 66.6021 20.3156 66.2996 20.6818C65.997 21.0322 65.7582 21.4701 65.583 21.9955C65.4079 22.521 65.3203 23.1261 65.3203 23.8108V29.6866H62.5973V17.3379ZM76.2355 30.021C75.2482 30.021 74.3645 29.8618 73.5842 29.5433C72.8199 29.2089 72.167 28.7551 71.6256 28.1818C71.1002 27.6086 70.6941 26.9239 70.4075 26.1277C70.1368 25.3315 70.0014 24.4557 70.0014 23.5003C70.0014 22.5608 70.1368 21.693 70.4075 20.8968C70.6941 20.1006 71.1002 19.4159 71.6256 18.8427C72.167 18.2694 72.8199 17.8236 73.5842 17.5051C74.3645 17.1707 75.2482 17.0035 76.2355 17.0035C77.2228 17.0035 78.0986 17.1707 78.8629 17.5051C79.6431 17.8236 80.296 18.2694 80.8215 18.8427C81.3629 19.4159 81.7689 20.1006 82.0396 20.8968C82.3263 21.693 82.4696 22.5608 82.4696 23.5003C82.4696 24.4557 82.3263 25.3315 82.0396 26.1277C81.7689 26.9239 81.3629 27.6086 80.8215 28.1818C80.296 28.7551 79.6431 29.2089 78.8629 29.5433C78.0986 29.8618 77.2228 30.021 76.2355 30.021ZM76.2355 27.8713C76.8406 27.8713 77.3661 27.7439 77.8119 27.4892C78.2578 27.2344 78.624 26.9 78.9107 26.486C79.1973 26.072 79.4043 25.6102 79.5317 25.1006C79.675 24.5752 79.7466 24.0417 79.7466 23.5003C79.7466 22.9748 79.675 22.4494 79.5317 21.9239C79.4043 21.3984 79.1973 20.9366 78.9107 20.5385C78.624 20.1245 78.2578 19.7901 77.8119 19.5353C77.3661 19.2806 76.8406 19.1532 76.2355 19.1532C75.6304 19.1532 75.1049 19.2806 74.6591 19.5353C74.2132 19.7901 73.847 20.1245 73.5603 20.5385C73.2737 20.9366 73.0588 21.3984 72.9154 21.9239C72.7881 22.4494 72.7244 22.9748 72.7244 23.5003C72.7244 24.0417 72.7881 24.5752 72.9154 25.1006C73.0588 25.6102 73.2737 26.072 73.5603 26.486C73.847 26.9 74.2132 27.2344 74.6591 27.4892C75.1049 27.7439 75.6304 27.8713 76.2355 27.8713ZM96.3654 29.6866H93.7858V28.0146H93.7381C93.3718 28.7312 92.8384 29.2487 92.1377 29.5672C91.4371 29.8697 90.6967 30.021 89.9164 30.021C88.9451 30.021 88.0931 29.8538 87.3607 29.5194C86.6441 29.1691 86.047 28.6994 85.5693 28.1102C85.0916 27.521 84.7333 26.8283 84.4944 26.0322C84.2556 25.2201 84.1361 24.3522 84.1361 23.4287C84.1361 22.314 84.2874 21.3506 84.59 20.5385C84.8925 19.7264 85.2906 19.0576 85.7842 18.5322C86.2938 18.0067 86.867 17.6245 87.504 17.3857C88.1568 17.1309 88.8177 17.0035 89.4865 17.0035C89.8686 17.0035 90.2588 17.0433 90.6568 17.1229C91.0549 17.1866 91.4371 17.2981 91.8033 17.4573C92.1696 17.6166 92.504 17.8236 92.8065 18.0783C93.125 18.3172 93.3877 18.6038 93.5947 18.9382H93.6425V12.6325H96.3654V29.6866ZM86.8591 23.6436C86.8591 24.1691 86.9228 24.6866 87.0502 25.1962C87.1935 25.7057 87.4005 26.1595 87.6712 26.5576C87.9578 26.9557 88.3161 27.2742 88.746 27.513C89.176 27.7519 89.6855 27.8713 90.2747 27.8713C90.8798 27.8713 91.3973 27.7439 91.8272 27.4892C92.2731 27.2344 92.6314 26.9 92.9021 26.486C93.1887 26.072 93.3957 25.6102 93.5231 25.1006C93.6664 24.5752 93.7381 24.0417 93.7381 23.5003C93.7381 22.1309 93.4275 21.064 92.8065 20.2997C92.2014 19.5353 91.3734 19.1532 90.3224 19.1532C89.6855 19.1532 89.1441 19.2885 88.6982 19.5592C88.2683 19.814 87.91 20.1564 87.6234 20.5863C87.3527 21.0003 87.1537 21.478 87.0263 22.0194C86.9148 22.5449 86.8591 23.0863 86.8591 23.6436ZM110.179 29.6866H107.504V27.9669H107.456C107.122 28.5879 106.62 29.0895 105.951 29.4716C105.298 29.8379 104.63 30.021 103.945 30.021C102.321 30.021 101.142 29.6229 100.41 28.8267C99.6933 28.0146 99.3351 26.7965 99.3351 25.1723V17.3379H102.058V24.9095C102.058 25.9923 102.265 26.7567 102.679 27.2025C103.093 27.6484 103.674 27.8713 104.423 27.8713C104.996 27.8713 105.474 27.7837 105.856 27.6086C106.238 27.4334 106.548 27.2025 106.787 26.9159C107.026 26.6134 107.193 26.2551 107.289 25.8411C107.4 25.4271 107.456 24.9812 107.456 24.5035V17.3379H110.179V29.6866ZM121.386 21.4701C121.275 20.7057 120.964 20.1325 120.455 19.7503C119.961 19.3522 119.332 19.1532 118.568 19.1532C118.218 19.1532 117.843 19.2169 117.445 19.3443C117.047 19.4557 116.681 19.6787 116.347 20.013C116.012 20.3315 115.734 20.7853 115.511 21.3745C115.288 21.9478 115.176 22.7041 115.176 23.6436C115.176 24.1532 115.232 24.6627 115.343 25.1723C115.471 25.6818 115.662 26.1357 115.917 26.5337C116.187 26.9318 116.53 27.2583 116.944 27.513C117.358 27.7519 117.859 27.8713 118.449 27.8713C119.245 27.8713 119.898 27.6245 120.407 27.1309C120.933 26.6373 121.259 25.9446 121.386 25.0529H124.109C123.855 26.6611 123.242 27.8952 122.27 28.7551C121.315 29.599 120.041 30.021 118.449 30.021C117.477 30.021 116.617 29.8618 115.869 29.5433C115.136 29.2089 114.515 28.763 114.006 28.2057C113.496 27.6325 113.106 26.9557 112.836 26.1755C112.581 25.3952 112.453 24.5513 112.453 23.6436C112.453 22.7201 112.581 21.8522 112.836 21.0401C113.09 20.228 113.472 19.5274 113.982 18.9382C114.492 18.3331 115.121 17.8634 115.869 17.529C116.633 17.1787 117.525 17.0035 118.544 17.0035C119.261 17.0035 119.937 17.099 120.574 17.2901C121.227 17.4653 121.8 17.736 122.294 18.1022C122.804 18.4685 123.218 18.9302 123.536 19.4876C123.855 20.0449 124.046 20.7057 124.109 21.4701H121.386ZM125.081 17.3379H127.135V13.6357H129.858V17.3379H132.318V19.3681H129.858V25.9605C129.858 26.2471 129.866 26.4939 129.882 26.7009C129.913 26.908 129.969 27.0831 130.049 27.2264C130.144 27.3697 130.28 27.4812 130.455 27.5608C130.63 27.6245 130.869 27.6564 131.171 27.6564C131.363 27.6564 131.554 27.6564 131.745 27.6564C131.936 27.6404 132.127 27.6086 132.318 27.5608V29.6627C132.015 29.6946 131.721 29.7264 131.434 29.7583C131.148 29.7901 130.853 29.806 130.55 29.806C129.834 29.806 129.253 29.7423 128.807 29.615C128.377 29.4716 128.034 29.2726 127.78 29.0178C127.541 28.7471 127.374 28.4127 127.278 28.0146C127.199 27.6166 127.151 27.1627 127.135 26.6532V19.3681H125.081V17.3379ZM141.235 12.6325H144.221V19.4159H151.983V12.6325H154.969V29.6866H151.983V21.9955H144.221V29.6866H141.235V12.6325ZM163.823 30.021C162.836 30.021 161.952 29.8618 161.172 29.5433C160.407 29.2089 159.754 28.7551 159.213 28.1818C158.688 27.6086 158.281 26.9239 157.995 26.1277C157.724 25.3315 157.589 24.4557 157.589 23.5003C157.589 22.5608 157.724 21.693 157.995 20.8968C158.281 20.1006 158.688 19.4159 159.213 18.8427C159.754 18.2694 160.407 17.8236 161.172 17.5051C161.952 17.1707 162.836 17.0035 163.823 17.0035C164.81 17.0035 165.686 17.1707 166.45 17.5051C167.231 17.8236 167.883 18.2694 168.409 18.8427C168.95 19.4159 169.356 20.1006 169.627 20.8968C169.914 21.693 170.057 22.5608 170.057 23.5003C170.057 24.4557 169.914 25.3315 169.627 26.1277C169.356 26.9239 168.95 27.6086 168.409 28.1818C167.883 28.7551 167.231 29.2089 166.45 29.5433C165.686 29.8618 164.81 30.021 163.823 30.021ZM163.823 27.8713C164.428 27.8713 164.953 27.7439 165.399 27.4892C165.845 27.2344 166.211 26.9 166.498 26.486C166.785 26.072 166.992 25.6102 167.119 25.1006C167.262 24.5752 167.334 24.0417 167.334 23.5003C167.334 22.9748 167.262 22.4494 167.119 21.9239C166.992 21.3984 166.785 20.9366 166.498 20.5385C166.211 20.1245 165.845 19.7901 165.399 19.5353C164.953 19.2806 164.428 19.1532 163.823 19.1532C163.218 19.1532 162.692 19.2806 162.246 19.5353C161.801 19.7901 161.434 20.1245 161.148 20.5385C160.861 20.9366 160.646 21.3984 160.503 21.9239C160.375 22.4494 160.312 22.9748 160.312 23.5003C160.312 24.0417 160.375 24.5752 160.503 25.1006C160.646 25.6102 160.861 26.072 161.148 26.486C161.434 26.9 161.801 27.2344 162.246 27.4892C162.692 27.7439 163.218 27.8713 163.823 27.8713ZM183.165 29.6866H180.489V27.9669H180.442C180.107 28.5879 179.606 29.0895 178.937 29.4716C178.284 29.8379 177.615 30.021 176.931 30.021C175.306 30.021 174.128 29.6229 173.396 28.8267C172.679 28.0146 172.321 26.7965 172.321 25.1723V17.3379H175.044V24.9095C175.044 25.9923 175.251 26.7567 175.665 27.2025C176.079 27.6484 176.66 27.8713 177.408 27.8713C177.981 27.8713 178.459 27.7837 178.841 27.6086C179.224 27.4334 179.534 27.2025 179.773 26.9159C180.012 26.6134 180.179 26.2551 180.274 25.8411C180.386 25.4271 180.442 24.9812 180.442 24.5035V17.3379H183.165V29.6866ZM188.09 25.7216C188.17 26.5178 188.472 27.0752 188.998 27.3936C189.523 27.7121 190.152 27.8713 190.885 27.8713C191.14 27.8713 191.426 27.8554 191.745 27.8236C192.079 27.7758 192.39 27.6962 192.676 27.5847C192.963 27.4732 193.194 27.314 193.369 27.107C193.56 26.8841 193.648 26.5974 193.632 26.2471C193.616 25.8968 193.488 25.6102 193.249 25.3873C193.011 25.1643 192.7 24.9892 192.318 24.8618C191.952 24.7185 191.53 24.599 191.052 24.5035C190.574 24.408 190.089 24.3044 189.595 24.193C189.085 24.0815 188.592 23.9462 188.114 23.7869C187.652 23.6277 187.23 23.4127 186.848 23.142C186.482 22.8713 186.187 22.529 185.964 22.115C185.742 21.685 185.63 21.1595 185.63 20.5385C185.63 19.8697 185.789 19.3124 186.108 18.8666C186.442 18.4048 186.856 18.0385 187.35 17.7678C187.859 17.4812 188.417 17.2822 189.022 17.1707C189.643 17.0592 190.232 17.0035 190.789 17.0035C191.426 17.0035 192.031 17.0752 192.605 17.2185C193.194 17.3459 193.719 17.5608 194.181 17.8634C194.659 18.1659 195.049 18.564 195.351 19.0576C195.67 19.5353 195.869 20.1166 195.949 20.8013H193.106C192.979 20.1484 192.676 19.7105 192.199 19.4876C191.737 19.2646 191.203 19.1532 190.598 19.1532C190.407 19.1532 190.176 19.1691 189.906 19.2009C189.651 19.2328 189.404 19.2965 189.165 19.392C188.942 19.4716 188.751 19.599 188.592 19.7742C188.433 19.9334 188.353 20.1484 188.353 20.4191C188.353 20.7535 188.464 21.0242 188.687 21.2312C188.926 21.4382 189.229 21.6134 189.595 21.7567C189.977 21.8841 190.407 21.9955 190.885 22.0911C191.363 22.1866 191.856 22.2901 192.366 22.4016C192.859 22.513 193.345 22.6484 193.823 22.8076C194.3 22.9669 194.722 23.1818 195.089 23.4525C195.471 23.7232 195.773 24.0656 195.996 24.4796C196.235 24.8936 196.355 25.4032 196.355 26.0083C196.355 26.7408 196.187 27.3618 195.853 27.8713C195.519 28.3809 195.081 28.7949 194.539 29.1134C194.014 29.4318 193.425 29.6627 192.772 29.806C192.119 29.9494 191.474 30.021 190.837 30.021C190.057 30.021 189.332 29.9334 188.663 29.7583C188.011 29.5831 187.437 29.3204 186.944 28.9701C186.466 28.6038 186.084 28.158 185.797 27.6325C185.527 27.0911 185.383 26.4541 185.367 25.7216H188.09ZM206.901 22.4255C206.869 21.9955 206.774 21.5815 206.615 21.1834C206.471 20.7853 206.264 20.443 205.994 20.1564C205.739 19.8538 205.42 19.615 205.038 19.4398C204.672 19.2487 204.258 19.1532 203.796 19.1532C203.318 19.1532 202.881 19.2408 202.482 19.4159C202.1 19.5752 201.766 19.806 201.479 20.1086C201.209 20.3952 200.986 20.7376 200.81 21.1357C200.651 21.5337 200.564 21.9637 200.548 22.4255H206.901ZM200.548 24.2169C200.548 24.6946 200.611 25.1564 200.739 25.6022C200.882 26.0481 201.089 26.4382 201.36 26.7726C201.631 27.107 201.973 27.3777 202.387 27.5847C202.801 27.7758 203.295 27.8713 203.868 27.8713C204.664 27.8713 205.301 27.7041 205.779 27.3697C206.272 27.0194 206.638 26.5019 206.877 25.8172H209.457C209.314 26.486 209.067 27.0831 208.717 27.6086C208.366 28.1341 207.944 28.5799 207.451 28.9462C206.957 29.2965 206.4 29.5592 205.779 29.7344C205.174 29.9255 204.537 30.021 203.868 30.021C202.896 30.021 202.037 29.8618 201.288 29.5433C200.54 29.2248 199.903 28.779 199.377 28.2057C198.868 27.6325 198.478 26.9478 198.207 26.1516C197.952 25.3554 197.825 24.4796 197.825 23.5242C197.825 22.6484 197.96 21.8204 198.231 21.0401C198.517 20.2439 198.916 19.5513 199.425 18.9621C199.951 18.357 200.58 17.8793 201.312 17.529C202.045 17.1787 202.873 17.0035 203.796 17.0035C204.767 17.0035 205.635 17.2105 206.4 17.6245C207.18 18.0226 207.825 18.556 208.334 19.2248C208.844 19.8936 209.21 20.6659 209.433 21.5417C209.672 22.4016 209.736 23.2933 209.624 24.2169H200.548Z" fill="#213D39"/>
</svg>
